<mxfile host="app.diagrams.net" modified="2024-05-03T05:18:36.842Z" agent="Mozilla/5.0 (Windows NT 10.0; Win64; x64) AppleWebKit/537.36 (KHTML, like Gecko) Chrome/124.0.0.0 Safari/537.36 Edg/124.0.0.0" etag="RIvfTOKd7i2tDUYABX-3" version="23.0.2" type="github">
  <diagram name="Trang-1" id="HmS-Dw8YL_V609JW8v9w">
    <mxGraphModel dx="1173" dy="631" grid="1" gridSize="10" guides="1" tooltips="1" connect="1" arrows="1" fold="1" page="1" pageScale="1" pageWidth="850" pageHeight="1100" math="0" shadow="0">
      <root>
        <mxCell id="0" />
        <mxCell id="1" parent="0" />
        <mxCell id="CzSD6Df-Re3cXR8nSm7G-1" value="" style="shape=image;verticalLabelPosition=bottom;labelBackgroundColor=default;verticalAlign=top;aspect=fixed;imageAspect=0;image=data:image/png,iVBORw0KGgoAAAANSUhEUgAABD8AAAKkCAYAAAAHuJT0AAAAAXNSR0IArs4c6QAAAARnQU1BAACxjwv8YQUAAAAJcEhZcwAADsMAAA7DAcdvqGQAAK0WSURBVHhe7N0HfBR1/sbxZ0t6DxASAgRC7703sZ6961kQez3F7uGdZzl7uTvPgu2vZ1ew94KioIBIr1JCCQSSQCCF9GT3P7M7gQQChCRAMvm8X7fnfGd3dmc37O7Ms7/i8BoEAAAAAABgU07rvwAAAAAAALZE+AEAAAAAAGyN8AMAAAAAANga4QcAAAAAALA1wg8AAAAAAGBrhB8AAAAAAMDWCD8AAAAAAICtEX4AAAAAAABbI/wAAAAAAAC2RvgBAAAAAABsjfADAAAAAADYGuEHAAAAAACwNcIPAAAAAABga4QfAAAAAADA1gg/AAAAAACArRF+AAAAAAAAWyP8AAAAAAAAtkb4AQAAAAAAbI3wAwAAAAAA2BrhBwAAAAAAsDXCDwAAAAAAYGuEHwAAAAAAwNYIPwAAAAAAgK0RfgAAAAAAAFsj/AAAAAAAALZG+AEAAAAAAGyN8AMAAAAAANga4QcAAAAAALA1wg8AAAAAAGBrhB8AAAAAAMDWCD8AAAAAAICtEX4AAAAAAABbI/wAAAAAAAC2RvgBAAAAAABsjfADAAAAAADYGuEHAAAAAACwNcIPAAAAAABga4QfAAAAAADA1gg/AAAAAACArRF+AAAAAAAAWyP8AAAAAAAAtkb4AQAAAAAAbI3wAwAAAAAA2BrhBwAAAAAAsDWH12AtAwBQZzt27NC8efPk8XisNQCAhsjtdqt///6Kjo621jQuGRkZWrx4sTidgZ04HA5169ZNrVu3ttagvhB+AADqzSuvvKLrr79epaWl1hoAQEOWkJCgjz/+WEOGDLHWNA7//Oc/dd999xG0w5ZCQkL00ksv6eKLL7bWoD4QfgAA6kV+fr7i4uJUUFBgrQEANAZnnnmmPvroI6tq+DZs2KAOHTqovLzcWgPYT5s2bXz/1s2WIKgfjPkBAKgX27dvJ/gAgEbI7DrSmGzevJngA7a3ceNGZWdnWxXqA+EHAKBe0JAQABqnxvb5zfcNmgr+rdcvur0AAOpFamqqkpKSrMoS00YacqlVAAAahG/+aS34JScnKyUlxaoavpkzZ2rEiBFWZWnTX+pxslUAjdAvk6Sd26zCLysrS7GxsVaFuiL8AADUi2rDjyHjpaGEHwDQoEyZIG3e3dXFFuHHMbdLPQk/0IjNmCTNn2wVfoQf9YtuLwAAAAAAwNYIPwAAAAAAgK0RfgAAAAAAAFsj/AAAAAAAALZG+AEAAAAAAGyN8AMAAAAAANga4QcAAAAAALA1wg8AAAAAAGBrhB8AAAAAAMDWCD8AAAAAAICtEX4AAAAAAABbI/wAAAAAAAC2RvgBAAAAAABsjfADAAAAAADYGuEHAAAAAACwNcIPAAAAAABga4QfAAAAAADA1gg/AAAAAACArRF+AAAAAAAAWyP8AAAAAAAAtkb4AQAAAAAAbI3wAwAAAAAA2BrhBwAAAAAAsDXCDwAAAAAAYGuEHwAAAAAAwNYIPwAAAAAAgK0RfgAAAAAAAFsj/AAAAAAAALZG+AEAAAAAAGyN8AMAAAAAANga4QcAAAAAALA1wg8AAAAAAGBrhB8AAAAAAMDWCD8AAAAAAICtEX4AAAAAAABbI/wAAAAAAAC2RvgBAAAAAABsjfADAAAAAADYGuEHAAAAAACwNcIPAAAAAABga4QfAAAAAADA1gg/AAAAAACArRF+AAAAAAAAWyP8AAAAAAAAtkb4AQAAAAAAbI3wAwAAAAAA2BrhBwAAAAAAsDXCDwAAAAAAYGuEHwAAAAAAwNYIPwAAAAAAgK0RfgAAAAAAAFsj/AAAAAAAALZG+AEAAAAAAGyN8AMAAKCWXIEBSooLVc+WIWoT6uDACgCABsrhNVjLAADUWmpqqpKSkqzKMmS8NPRSq0Dj4NCIk/vrg2FBcllr9stbpk/en6url3qsFQ2NQ4P+1FefjgyRWx599+HvunhBuXVdbTnVpVcb/WNsvE5OClaUy+Fb6/V6tGNrjj77baPu/2m71tf1YYBDZcoEafNiq5CSk5OVkpJiVQ3fzJkzNWLECKuyHHO71PNkqwAaoRmTpPmTrcIvKytLsbGxVoW64gcKAABQRWCwWy3CA2t4CVCk29qwgQoIDNi1v5EB1spac6rf2F765bJ2ujA5ZFfwYXI4nIqNi9Glp/TUjPHx6sxRFgAADQZfywAAoIqMjVl6f36G3rMu7y/LU5bVsMNTlK+pla57b/42/bqj6TQidcbE69ETotXc6ZC3vERz56fqrx+s1NVTUvTYvDxt8xivhcOp1j076NEBgRxoAQDQQPCdDAAAKvFq+Zw1uuiNFbrAulz8+Tatt/IN784deujt3ddd8OZKPbNh3+GHc3fDiEOmUuOLg2Lu28EeCIW2j9HwIPMBvdr8+0qNfWOtHvtli17+daP++uZCXTyrSGXmDZ1uHdsrRpHm8n4czL7v77Wszetcq7+NsQ0HjwCAxojvLwAAUH+CQnXmsZ317Z1Dtf2J0Sp9cpS2/q2fPjg1XoNCrdtUcEXqb9cM0MI7BmrBTck6tvIgI64o3X+D/7r5N7SzVlZwqF3XNnrluoHa9OholfxrjEoeHabF13XWLR0D9z9WiSNAI0Z11o93j1DBU2NU+PAQzbiwjcYeKKWwOIyT/4rMIDohUv2qPKdy/TB9rf7+1Vrd9cka3fX7TmPNHlzB+tPRXfT9ncOU8+QYlT41Wjn3DdR357WutA8OHXNKXy0wnvvCWzvp/MQ4vXDrMBU8OVrb7+6l29v498AZFqlrzu6lhfeNVJHxXMzXYNE1nXWz8RrsqydSzbZxqN/RPTXPfPzbuunqFoEaPaaLpt09XIXGNkXGazZzXJJOjK5NegIAwJFB+AEAAOqFM7KZnpvQXx+c0krHtwpWTIBTTpdLzVtE6exjuujnm7vp0rjKJ8wutY4PV59E4xJv3L7yUYnDrTaVrtvNqQFH9dLMq5J1RZdwJQYbj+FwKCA4SL26tNJT1/bVS7333d2kz9G99e1ZrTQ2LkBBTocCQ0M0cnCyPrmktbrV4Fy+YH225pSYLV0cCktqqx//Plg/XtxBdw6O1aAYlzwZW/XYd6l6/Kc0TVqSrzz/Zn4B4br1qn76/NQEHdsqSJFuhxxOpyKjw3Xc8A76+sYuOssXgDgUExPmf+6JsfrbuC66um2QglxORUd4tSPbK2dUc71wYx9NGtVMfaLdCjCei/ka9O7WSv+6tp/eGWwO8FrVwWwTHhmq3ubjt4rUhef21bdnJOiouEAFm9sYr9mwAe005bK26sORJACgkeArCwAA1J0jSJec00XXtnIbBxde7czYqkc/WKFx76/V/60vUZnXoZC4OD03LkmDajSNTPXcrdrohZNilOByyFucr8lfLNdJzy/RVT/sUFq5Vw53qMaflqSxgdYGVTjVprlLc35coeP+NU/HvrdZC4r8QUZk+5b6c8KB04/yrC2a+EOusn1joDjkDg3V2IFt9NiFvfXbPcOVdkcvTTq6mbrs9fgO9Tm6sx7sEiS3w6v89Ez97Y3FOv7llXp8VbHv9QlqEa8njo9WmLWFjytEveK8Wv1Hul75fbtmLcrUJzsDdN7pnXRFvEsOb7lWLVyrc56Zr2PeTtW0XGPH3CE6+4yOujzaug+ToxbbmIzHH93BpV9//EPH/3ueTvwwQytLrfCndQudl0jrDwBA40D4AQAA6szdKkE39QjwHViUZ2fqqueWaeIvGXprVqqufH6pHk/zyGucMIcmttKtvWo7PYxDQwe3VN9A44Tb69H8acs1bmqmvl6VpVe+WKGJ83bq91Vb9fqSAnmDrE2q8Gr70rX68xcZmpqapx9mp+jR5WXy5xhBahdbkxN5j377fomOfT9NP2YZ21Ya7sThdCk+sZmuPa2n5t7aRX+uPDuhK1LjB4QrxNz18p168o0Venj+dn2/bIsmvrlW76Tl6odF6fokU4qoshte5axM0XEv/qGr3l6sEe9lakdkC13e09+6pSxzs654K1UfpuTqx9+N5/Z5li+YcYbE6OK+wbu6ADlrsY2fVxkL1ujcz9P1/YY8fTNjtR79o9xYazBesyS6vgAAGgnCDwAAUGeJHaPVwzd6p1dpy9L1ca5/vU9Jrl6em6tSc9kZoGEdw32rD5ojUP0Tg/1dMzxFmrGqQCW+KwzeEr35zjwNfn6Zrvg0TT9W6W9Swavl63K0bVdg4dHW/DLrRN6pkJpOg+st07zfVuuYB2ery3PLdev3W/TpugJtL6u4Y4fC4+M16dxWamdlA86IcPWN9R92lW/P1g8Zu1MTT16Gxj85X8e+tlK3Tc9W+u6rDF7NW5alTZXWBSZGqJfb/1p7ip3q3Lelxg30X06M8Gq7eVuHQ73aRqgiA6rNNn5erUjNUY5VmeOabMypCIwcCqptjgUAwGFG+AEAAOrIoRbhbuP/TV6lZxf7ZzypJDO7RL4eJobY8GpSBmNjKyfYZa+ZUBxuxewa/qNcuUXW4kHILbRO3C1l5V5jj/1qPvuJQxHGcwg3nuWaNZn695crdcbTc9TyH3N13tQdyvQnA4rqFKczYnwbyBniVqR1/95iY98rhRn75S1XRl7VfXaFuuVvcOFQYNtE/d/F3fSGdfnfaXHq4Gu64VBoRKBirMeszTYV8grLqzx+SbnZisfPHAAWAIDGgPADAADUkVfZxglyhWjjRHvPYT0iwty7WhTkVrrtLk5H1QE6HS4Zd1OVt1z5vuYjBjMICbGWLe4gtyIOcGTj8dY0daiGM0wT/zJcuU+OVs79/XRfUtUz/7KCfE35ep3e2uaPChyOQLWN8t/GW+JRoW/JuJvgiiCigkMRIa69Bij18XpU4Btgdbdy4778QZJXBRu3aOJnKbqzmsvEmbnaaW1am218jNfLU7lvj2mPEgCAxoDwAwAA1NnGTflKt1o8tO/aXAMqN+5wBOnMnhEKME/4veVasL6iT4pXZVaTAoerapjhahaidr4NKvGWaFlmqX/6WOM+h3UIrRQYuHTauYO1/bERWn9nb/2jwyE4xPEUaVWOFGbO0uIK0YVj49R2j110x0Sob0UTD5Vpa74/KSjPydfKPP+yMyZSo1tU2jC4mSbdPUJ5Dw3VouuSNLpKCuJV+R5hQ2lGgdb41jkU4C3SZ9M26okf/Zf/LsvX1h35+mVZhl5amLeru0pttgEAwE4IPwAAQJ0Vp6TrnQz/oKYB8a311ri2Oi0xWO1aRuuqc3rqkS7mYKhelW3P1KTFVvMNT7HSrEBArghdPCpKLY0jk9DYGP39rET127P5iDyaPn+bUs3AxOFU/6O66D+DotS1WaiOGt5JD/UNkDsgQG2iyrXB3/eknpXrm9mZWutLIxxK6N1ZP1/XSROHxemcPnG6+thO+u6GZI0N9qU8Ktq0TZ9v820olWXrvaVFvuDGYTzXWy/sqPHtQ5VsvD7XnN1e54Q7FRwWpNbFRVpVTcOYysozt+rDVP+gowGtE/XM8dFqZbxWzpBI3XFON/3f+N6a+dfB+mTE7sFLa7MNAAB2QvgBAADqrjxXj05J1ZwC4/Ta4VRy72R9esdQrZvYVy+NiFC0ccThKcjTk++t1TcV/T+8Rfpq+U4V+rIEt4Ye11dpj49W9j29dW+7cq3PNq+oKn/1Bt02p8DXhcMZGqkbLuqnFfcM1rTz4tXVHNDTU6rpP6zXe9UOeFp3+Ws26MYZ+fI16HC41K5zoh4+v7umXNZdL56SqLExLpnRh/lcH/8kTUt3ZTAe/fhdiv6XaQYQDkW3TdT/JgxWivH6vDAoTEHmrhdk69GvM/cY8LQa3gI990WaFhabL0Kgjj6xj1IfGantD/TTA538IVNe6ib9/Td/2OJTm20AHFmOUN1x/TBlPji86uWfw5X+wDBtuneIlt3WR1POTNQxew7WUweB0VE6u2PQ3kGoK0hjekfv1eINaCwIPwAAQL3IXrtexz2zQo8vzlN66e4zeK+nTOtWpenK5xZp4urKg3d6tfjHP3T9b7nK9M2U4pDLONrembFN9726TP/NrCYF8Jbo4/cX6oyvt2px/u6BN837KsrJ1f8+WqKzp+Wr2Fpb77yl+ubThTpmSpqmZpZq1wQvFm95qVYs36grnlus+9dVjRE8udt0zXNL9Y9FO5VVuS+Lt1xb1m/RhBeX6akt1TznauSlrNVJL6/V+xtLVOI1XrdAt6LMbkLlJVowf61OeXm9ZleMj2KpzTYAjiCHQ2EhAWoRHlj1EhGolpFBSowJUfc2MTpnTEd9PaGHro6rYyrhDtZJx3bXvDv76P6ugZXCD6fad2ur928fqO9OjFE8Z5BopBxeg7UMAECtpaamKikpyaosQ8ZLQy+1CjQl7pAgdWkRrLgAjzIy87U8b//dUILDQ9W3ZYAc+YValF6iAmv9fjndSk4IU1KoQ0U7C7U0vVgVvWgOD4eiY0PVPTZQUQFSUUGJ1qTna2MNkhd3aLB6tQxWrMujrdvytSy7vJYtLhyKiQ1Tj2YBCiwv1Qbj8VPM1jf7VZttYCtTJkibF1uFlJycrJSUFKtq+GbOnKkRI0ZYleWY26WeJ1uFTTjDdN8tA3RvG7PpXKkWL9um3/P9V5kzLQUGB2tgp2h1MT4DHfJq++I/1P21DFWaSfugtBjeWxvPi1WQPFo2dYH6f5Hnn048LEHf3t9Fx7ulsi0bNOLJdZpDE7H6N2OSNH+yVfhlZWUpNjbWqlBX5HYAAKDelRUWa1lqjqal5B0w+DAV7SzQ7JQczapp8GHylGltmvEYq7M1a8vhDj5MXmVvz9fMNTv09YodmrahZsGHqaygSAvWZeuHNblaXOvgw+TVju079cvqHfpx7c4ahhi12QbAEeUt1Y/TVunK91b6Lle8u1LjXlukAS9t1DLfB4hD0UnRGnCAszu3OdaPtbwns91IdW1HnAc7p7Vx84M9yaz5VONA7RF+AAAAAEAjVJBRoHVWNzpPabl2+pYqcQbp2KO76Ie7hinnqTEqMS9PjtDGO3vr5THRSvCFDi6dcXZ//XBcpDWDlkPJg7tpzh0D9P45XfXbDW01xDprdDWL15u3DtTccQlKrhxYOAI0dHhHfXnHMOU+OUalT43UJuMxXjAeI7HyGacrWo/cOEAL7xio389poX79O2vOA6NV/MQIrby6jQa5pLi+nTT79oHGbQZoxumxirA29XOo91E9NM/YfuHtA/TG4IpJ1IEDI/wAAAAAgEYmODxcF5yUqKPMsXu8Hq1esrVqdxSHWyee1UdfnJqgoxOCFOkyu8c45HIHqHWrWF15Ri99fkKEAo11zZqFq2eM2zo5dCgkMlR9EsPUKTJYvRKCFWWdNToCg9Q5MVy9WwQq2L/KXKmzzu2rH85trZMSgxRhPI7T5Vai8RjXnNFbv1wSr84VZ53OACUlhBv3Ha6+XZP01vkJGhTplNvtVktvqTZ6pG3rdmpH8zDjNhEaPqilTtj1QAZnmM4e2Ez9zX2I92rFhkM2whNsiPADAAAAABoyZ4j+csMoFT852ncxW3AU/HOg3hkVoQiVa93Stbrk6xwVWTc3ueJa6R9DQxTk8Kpka6Zuf3m++j8xX2d8vs0XMpgzVvXu1UzdneVaOD9VTy0tUJlvS68yUzbrke9S9dryTD02bZvWWKFKeV62Xvl+gx75LVsVM3m37NtRzw0NU6jxOIWZmZr46gKNeG6FHl9dbNyfU+16d9C/hwTtdeLpbh6urt5CfTdns95ckasP5m3zzXZlDg799kr/4NjO0Bid1WX30Kvu+OY6NcG8J6+K1mfq/Uz/eqAmCD8AAAAAoCFzOOR2ORXo9l8CzFYcVrcTr8ejfK9bbSKrntqVb9usi59erPPeS9GVb6/SU8tytSAtV5/+tFnf5Pq7yjjDApXg8Gre3PV6fHmRNRuXV1vXbdF9X63XM7M36/4ftmutNTSQd2eOXv5mne79NUe+CbnMVh9Dm6ml+dDlhZr07h96dHGOZq7O0MTX1+pzcy5zp1vHDGyhdnuO6+Et03efLdKJ76zSJS8u0JXz/dGLOb7J53OzlOlLPwJ0XO9YRfuucKhbr2bq6cs+yjV9fqbWW/sF1AThBwAAAAA0ZJ5S/TYnVY9N9V8e/3Gjnp2doR8ySlXuDFDP3kl6/4Yu+nOUdXtTeZlSNu7QlNmb9X1xuM4b3laP/bmHZtzVTZdG+ZMIh8sh956hxMFwRWhQglPmXXi9ZQqKa6FxA1v6Lhd1C1Spb0BlhwITIjXAP6DIbuV5+nJpcaXpz3fL+SNDn2T7t43t0lzHhRiLzlCd2TPMt7/ewmy9t7ik2m2BfSH8AAAAAICGzFuqWbPX6a9frPVd7vosRTe+t0LHPr5AE1PK5JVDAdEt9Nfh4dYGJoe69O2gb+4epo139tX75yXrzqHNNTzGoWKP1WTC4/tf7TndijGDCYPDHakbLuimNy62Lhd10HnN/aebjsAAxYf6FnfxlpQofV/Te5Vm682Fhb5uOP6uL26545rr1Fb+aX2zVmbqs71GdwX2j/ADAAAAABqj8gJ9tcoaq8PhUOeEMN9qU3D79vrw4tY6Ic4t7czV29+v1kXPz1PbfyzVG9n+23i9XlmTxdSOp1yFpf5Fb0meXv08RXd+Vs3liy2atcfYpN5Sj/Y907ZXc+ZmarG5c1bXl4G9m6mPOSeup0Rfzc/SduuWQE0RfgAAAABAY+QI0vC2IaoYEjSnwEoi5NCA3s3VxddHpFxffLZYF3+ZpndW7VRauVvRlWdQsZg5REUWYWYMFTzeSgmFw2x5UUl5gZZv81/vcHm1bulGPfGjdfk5S8t3Fmnp2iy9NTNTcyuPxmrwBS/WcnXKtmTovQ0eX6uWmK6t9WS/cF+Xl/KcLL37x/62BKpH+AEAAOqFOzRYvVuFqVvU7pH50fA5g4PUIyFMvWIrprkE0OA4AjRieLKePL3Drst/zumij2/pr2d7BPjfu54SfbM013dzk2vXG9qpDolhijFTC2egjj6mtU4M8UcYDnMQVSvNKCrzyJ9zOBSXEKUhbaI0JsH4XCjzqtgKQJwRYRqZFKExHaz78xboo0V5Msc1Ncf/uPHsJB0daVzhcGvoMZ301p976KubB2nVlYl7D3h6IN5CvTcvR/nGfTtDIzXCN7aIR+sXZ2haRcYDHAS+4wAAQN25wnXXVQO18PY+eqCDcXjhCNEt1w5T5oPDlfnPIfpkxO5fJndxBOn6q6zb3Ndd4/foD354ONSmQ3ON9U8lYHCo3/F9tdncpweH6d29Rug70pw65k899e11vfVdNZdvL2+rUeYLbZyEPHBzxes/UP/u5FBwt05a+U/zeQ3X5puSNLDiKDAoVk/cZP7tuuu6FtY6AA2LM0CDBrbRbWN3XyaMTNAZbYMU5AshPEpduFb3L7NmTJFX85ft0Eaz24jDqV5j+mjV3QO14t4h+v74SIV7vb5WHo6QQLWyWoEUZxVpk28AEIeade+o6bf10f8NDZO7rFBrfYOPGrsR1kxP3jRAUy9IUG/rM2T5L2v137RyXwuNuM7tNfW+kcp+eJh+OTFG0cZtvEV5eurLLbWamSVtUYa+9yUrlvJCfTg/V3v0oAFqhPADAADUWfLQZN2e5JZnx1a9sMT8Sc6hsNAAtQgPVIuIEJ36p2RdvCtgqOBQaIh1m3C3Qg7zUUlwbKzuHj9Ai69rr+PNXyotAYEV+xSgqABrZUPhDNPRfWJ1fJdYHVfdpWO44n2vo1PhFa9/WIAizLbibreah5nPy1zn2jXDgycnUy8tKZFCY3TPyXFKONhfZwEcXl6vPB6PSsvKlZdfrNUbs/TK50s0+u2MKgHDzlXrdOHn27S6yCuvw6nmLcLUKbBYX3y7TCd+l6dS47YOZ4RO6Ob/oCtZl6aHFxb4Wlr4GP8NC3bLWZ6rSd9v1ariSlcEumRNGCMV5+juF5do4vw8ZZZ5jfs0rgtxySWPtm7K0J0vL9EDG2o3rKpnZ5beXl5qDcrqVemWrXpnY8V+AAfH4TU7WwEAUEepqalKSkqyKsuQ8dLQS60CthUYo+fv7K3rmnu1fOoC9fsiTyWOUP39loH6Z9uKRMOrjXOWaeC725RZceThCNbtNw7WE8nGbcq267r7FuuFwzZ6f4CuuXaYXuhqPHZ5vh59eq4mppo75lC3EV314sBg34H7rKlLdfuyBtS3PDRen9/XRacEGq9oNbM0eAszdcF9K/SBJ1KP39lXd7Q0np+nWC+9NFsT3F204fJ4xRmrSrds0Ign1ul36w6CO3XS8usS1c6br8f/O1d/3cDhoa1NmSBtXmwVUnJyslJSUqyq4Zs5c6ZGjBhhVZZjbpd6nmwVqMwVFKTeiSGK9pRqZVq+Nu+3y4hDMc3D1TvaqcK8Qi3NKFHFhCzukBD1bxWkoNISrd5SoPRq7scdEqxe8cFq5vZqx/Z8LckqU4l1Xe24dOoFg/XxkCC5jA+92V/O1cipBfsdK6TRmjFJmj/ZKvyysrIUGxtrVairiiMSAACAWknom6gLYh2+ge8+WrhzHwe6DrUekKx7O9V+PJDKA/DVmXFf1d+dVyt+XaHRTy/QiKcX1Sj4qO1+1Wa7wIRwdXOZG3q1+Pt5Cr71Z7krXQL+tkIfmCck5YValeVv1i5vkdYay6WZBVrnX6GyHUVaXyk5KVqbqc+zPHK4QnXpqGbaq5EOgEarvLhYC9Zma9r6AwUfJq92bMvTz2tyNKdS8GEqKyzUnJRszUitPvgwlRUWacG6bE1dnaN5dQ4+pJadknRvv0Bft0lvSY7enW/T4AOHBeEHAACoPUeQzh4YoyjjiKJs23Z9tWXfLQYcrhBdcUaSRhxEV5IWSQl65uqB2vToaJU+NVq59w3UN+e21thd7a2lDkO6atbtA7XwjoGaf2NHnRVhXWEc5gw7rpfm+a4boNkXxauzeeQT2FzP3NJHE5Os+3AG69KLB2jhbd10VTOHeo7uobnGfS28o7+e7VVNWBMUqjOP7axv7xyq7U8Y+/XkKG39Wz99cGq8Bu0xbok7sY0+u83/+O8MC1GrDq31yg2DtfWJMcZ2I7R2Qjf9vVuQajqySItWYWptPgdvuf7YYk1vWa0yLd5c5DtJ8BQUaPkO4wQoa6eW5Jl/H682ZhYox3c7S3mevlpdYtzeoRbdW+q03bNlAsDh5QjVXX8xxycaqdTr22iAb0RWr9IWbtJbzG+LOiD8AAAAteYMi9VJSeYI/F5lrc/Rgup+kjNbIWzzT1cYlJCop8aGK9C6an8Se3fWTzd01l+6hysx2Cmn06mI6HCdMKKDvrmpmy5r4Q8vUuan6ZuyYPVODFe/5ET9+9TmijOuCk9upxeOj1X/1uHq3dyrb2ZkapXZ2sHlVnKrcLW1ZjuQw6X4uHD1aRWilm4pNDJUfYz7Mi/JYdZtLM7IZnpuQn99cEorHd8qWDEBxn65XGreIkpnH9NFP9/cTZeaD25xBgWqm/FYfRLDNHRAZ027toOu6BSq5gEOY7sAtW/fUg9c2kN/bVX1carnMO4nVMam5nmAuo3so5UPjFD2Q0O15Pouur1T5RDFq0W/r9VNH6zWTR9v1mxfCpKrFz4x6g/XaOKcPVvoePRbSp5/VoXgaJ3SuaEN9AqgyfAWa1OBU83D3Qp0GB94Xo8yUlJ1+edZIvtAXRB+AACAWgtMilR/62x85eZ9dHnx5uvZz9K11jfrgEuDxnbQ9XHWdfvgDI/TU+ckqHugQ96SAn3w+VKN+c9CXfrDDqUbJ/KBzVroX2fGq6350KV5euS99fq5wLx/h9oM6KCH+zbTA+e2Vi9z3zyl+unrlXo41ernUbJT703dqM+3WrWnRDNmbdBD36drRr5/VbUcQbrknC66tpU5JaxXOzO26tEPVmjc+2v1f+tLVOZ1KCQuTs+NS9KgvRqMONW+Q5TC1m3UZc/P09AXVuvdDHN2BPNuw3V+v3D/zfbHEaze8daUls4A9e4Ypc6RAYoKC1bPzgl6/Np+endwyK4ApDgjS5N+SdNz8/O01Xwgb5nmLdysZ2Zs1keb906pdm7O1xrzJXG6NTA5XEH+1QBwmJXr6y+X6qw3/tBV7yzXKf/+TR2eXafvD9uYULArwg8AAFBrreJCFWseTXjKlbq9YkT+veWtWqe7FhT7umE4Q6L1t1PjlbSfo5CEPvE6NcJMNjxa9etKjfthm6avz9brXyzXXcvKjLUORXVuqXOtceBK0jfpqi+2y8wzHK5gXXZxD90Y72+RsnXFWl31c/7uYKZ8p978NlVfZVm1t1S/zlqvv3+zWT/v5+Da3SpBN/Xwhw/l2Zm66rllmvhLht6alaorn1+qx9P8rVtCE1vp1l57t5zw5G3Vza+t1f9W5em3P9L0lx92WLMqONQqpgZRQ0C4+litSrzFBfrqpxRd/c5K/WNOnrZ7jEc2nvdZZ3TUlbUcG69sR6E2mQGVsT+Jxt81xv9QAHDYbc/I1ifz0/XKnEx9mVq8ewYaoA4IPwAAQC05lBAZYPy/wVuqrP0dnRrXf/zFOn3mG3PCoeY92uuR3ta2e3GqX9swBZtXGjfPdYfo3IEtNc68DIhVy3Iz/DBDjjANarP7UGbNrFW6bYkZsJhdSpxyO7wqz96qm6dsUUo9HDgndoxWD2uw0bRl6fo417/epyRXL8/NlW8MQGeAhnXcuyVHWUauZhVZhSF/R7GyrP0KcNfgkKx0u2777wId/3/Ldfaz83XqJxv18pwt+ue7i/WXRf7gyRkSowt7B/tvf7DKyrS92L/oCA9kylsAgK0QfgAAgFoLCTRbV5i8KqpuvI9KPNkZuvObHdrhO0sP1LmntNOofTR4iAlx++/X4dSgUV31xsXddl0e72d17XC4FBdRqYWFt1jvT03Xikr7sfmPDH2VbRV14lCLcGufjOeanl2812CjmdklKrLCjNjwvUd19RaVKadSCOMt96rUqs1u7QfkLdfm9Fx9vyRTH2/0B0A+3lJ9uyrPH7wYd9Qhfo9RV2vK61Gx9aQcbqc/fAIAwCYIPwAAQK0Vl5ldPUwOBdVgFts1s1L02PoyYxuH3M2a6dTE6g9FCkqt+zVO+OfNXqs7P0up5rJWL62vlHQ4Q3Xtqa3Ufdd+ONR6UAc91NUco6OuvMou3P1Y0aFu39SLlUWEuXeNk5Fb6bZ+XnmNJ7QrsPCplIQcBFeAW832SCbKy/33XzfG38R6obzG628OoQIAgF0QfgAAgFryKiO31H8K73ArqmL2lP3x5Ovpjzdpfsn+zqw9WpFR6BsfxGzJ4N2+Tf/6caOe8F026cv0UqVuydEXc7doysaKkMGh3kd11gMdzTE5vCoqKFWBx1jrCtFV53bQqXv2QjEevvIeOGuw6xs35Svdl1441L5rcw2o3LjDEaQze0ZYM7GUa8H6PP/6ehTes7NWPjRKhY+P0OIzY7VrRl/jGQ9oE2Y9tlerthT4Vx8sl1sxvh4zXnnyirWlalIDAECjRvgBAABqLTWj0OrG4lbbmJq1sCjauFG3/lqg/eUfKxdt01zfDZzqP6qT/t4p0Dc9bkxSWz13cRe9d01/LftbT11nDe4Z3KatXjohSlHGDniL8/Toi4v1gNXCJCA2Xs+e2UJVZ5M1u3h4/QGII1C92kdqUIco9QrxXVmt4pR0vZPhH9Q0IL613hrXVqclBqtdy2hddU5PPdLFH7yUbc/UpMW+Tij1qmBjntY4nQpwOJTQv4NeGhmtDpHBGjakk54eHOxrieIp2K63FlUaWOQguKKDlej2JSjamFmgeuktBABAA0H4AQAAaq0kNVcLy8wIwaGO8aHae6SL6pRr+ncpei2rosvM3soz0vTX6Tt9I/w7I2J03/XDlP3ISG2e0E5HhRon6N4y/T5tnV7dbtw4MFL3nN9Wg4PM9eWa++NqPbYhT//5IFWzzEE4HA617tdRzw7yBwR+Hq3N8s8+Yw5QeuIZ/TTn+q66smpCUlV5rh6dkqo5vil1nUrunaxP7xiqdRP76qUREYo2jqo8BXl68r21+qbQ2qYeeXLS9fepOb6wyREQqj+f01drHhiqmRckqKfx3L3lxfrs8xS9XsvUIjg+TB3Mp+8xW67sY9piAAAaKcIPAABQa5687fpuo9mCwqFWrSPVbj/ZQRWF23Xv55lK22fXinJN/3KJTv0iU/PzPPI6HAoJcSvYOHIp3Zmn9z4zrvs2VwVy6agTO+u2RJexB14VbNyoG37Ik9n2oXjzRv3lxzztNBMWZ5BOP62Trm7hu3ODVzN/TdWUzPJdAYzXOCyKOEDXney163XcMyv0+OI8pVeMVmrwesq0blWarnxukSaurjQYab3yasGPS/WnD7dods7u/Ta7uuRu267/vLVIF88u3Gsg1ppxqEfbcF+A4y3J1Xdr9hyzBACAxs3hNVjLAADUWmpqqpKSkqzKMmS8NPRSq4BdtR/dR0vPjFFI6Xbd8OBiTao8BWx9cLrVPiFM7cMcKi0o0rItRdpeX+fmxn13bB2mNm6P0rfma0VezWMLd0iQurQIVlyARxmZ+Vp+ENvWmcOltsZr0sF4TQryCrU0o8TXSqbWHCG686ZBerS9QzlLVqrbq+lK5wjRvqZMkDYvtgopOTlZKSkpVtXwzZw5UyNGjLAqyzG3Sz1PtgqgEZoxSZo/2Sr8srKyFBtr9e9EndHyAwAA1MmGeVv0pXHm7QiI1CndA+v/4MJsVZGWox9XZWvGpnoMPkzGfa9JzdG0tXkHFXyYygqLtczcNiXv8AYfJm+5UjfnatrqHP2WXsfgw+CKbaaTWzvk8JToo9lbCT4AALZD+AEAAOrEk79VT83KV4nZBWVgnNrXtOsLGgiHug9sqaFuqWBDmv61gi4vAAD7IfwAAAB15NXvP63Xu9lSSPsEXd2W9KNRCYzWdYPDFeAp1P99laZlh7kRCwAAhwPhBwAAqDNP/jbd9foKXffRJs317J5TBQ2fM9ijX39YreteX657GegUAGBThB8AAKBeZKzP1Iu/btGUjbWbbwRHhic3R2/P3KwXF+/UDsb6AADYFOEHAAAAAACwNcIPAAAAAABga4QfAAAAAADA1gg/AAAAAACArRF+AAAAAAAAWyP8AAAAAAAAtkb4AQAAAAAAbI3wAwAAAAAA2BrhBwAAAAAAsDXCDwAAAAAAYGuEHwAAAAAAwNYIPwAAAAAAgK0RfgAAAAAAAFsj/AAAAAAAALZG+AEAAAAAAGyN8AMAAAAAANga4QcAAAAAALA1wg8AAAAAAGBrhB8AAAAAAMDWCD8AAAAAAICtEX4AAAAAAABbI/wAAAAAAAC2RvgBAAAAAABsjfADAAAAAADYGuEHAAAAAACwNcIPAAAAAABga4QfAAAAAADA1gg/AAAAAACArRF+AAAAAAAAWyP8AAAAAAAAtkb4AQAAAAAAbI3wAwAAAAAA2BrhBwAAAAAAsDXCDwAAAAAAYGuEHwAAAAAAwNYIPwAAAAAAgK0RfgAAAAAAAFsj/AAAAAAAALZG+AEAAAAAAGyN8AMAAAAAANga4QcAAAAAALA1wg8AAAAAAGBrhB8AAAAAAMDWCD8AAAAAAICtEX4AAAAAAABbI/wAAAAAAAC2RvgBAAAAAABsjfADAAAAAADYGuEHAAAAAACwNcIPAAAAAABgaw6vwVoGAKDWUlNTlZSUZFWVhMZYCwCABqFgh7Xgl5ycrJSUFKtq+GbOnKkRI0ZYVSV836Ax2+N9acrKylJsbKxVoa4IPwAA9WKf4QcAoEGzTfgB2AzhR/2i2wsAoF5ERETI6eRrBQAam6CgIGupcYiKirKWAHtrbO/Nho6jVABAvYiJidHRRx9tVQCAxuLyyy+3lhqHHj16qFu3blYF2NO5556rsLAwq0J9oNsLAKDe5Ofn64EHHtCSJUvE1wvs5JdffvE1Pe7evbu1Bmj8QkJCdOKJJ+qKK65odC33zO4A9957r9auXcv3DWzF5XJp5MiRuvbaaxUdHW2tRX0g/AAAANiPlStXqmvXrkpISNCmTZvo3gUAQCPEtzcAAMB+fPDBB77/btmyRb/++qtvGQAANC6EHwAAAPsxZcoUa0maPHmytQQAABoTur0AAADsw+rVq9W5c2erkuLj431dX8w+2QAAoPGg5QcAAMA+VHR5qZCenu4b/BQAADQuhB8AAAD7sGf4YarcDQYAADQOdHsBAACohjmFZocOHaxqt5YtWyotLY2uLwAANCK0/AAAAKhGda0+TBkZGZoxY4ZVAQCAxoDwAwAAoBr7Cj9MdH0BAKBxodsLAADAHtavX6/27dtb1d7i4uK0efNmur4AANBI0PIDAABgDx9++KG1VL3MzExNnz7dqgAAQENH+AEAALCHmnRroesLAACNB91eAAAAKklNTVVSUpJV7ZvZ9cWc9cXtdltrAABAQ0XLDwAAgEoO1OWlAl1fAABoPAg/AAAAKtnfLC97mjx5srUEAAAaMrq9AAAAWMxuLK1bt7aqA2vRooVv1he6vgAA0LDR8gMAAMBS0y4vFbZu3aqff/7ZqgAAQENF+AEAAGA5mC4vFej6AgBAw0e3FwAAAMOWLVuUmJiogz00at68uW9bur4AANBw0fIDAADA8NFHHx108GHatm2bfvrpJ6sCAAANEeEHAACAYcqUKdbSwaPrCwAADRvdXgAAQJOXkZGhhISEWrX8MDVr1kzp6el0fQEAoIGi5QcAAGjyPv7441oHH6asrCxNmzbNqgAAQEND+AEAAJq8unR5qUDXFwAAGi66vQAAgCZt69atio+Pl8fjsdbUTmxsrK/rS0BAgLUGAAA0FLT8AAAATZrZ5aWuwYdp+/btdH0BAKCBIvwAAABN2gcffGAt1R1dXwAAaJjo9gIAAJos8zDozTffVFlZmbWmqu+//17vvfeeVfndd999atOmjVVVFRUVpbPPPtuqAABAQ0H4AQAAsA//+c9/dMstt1iV36JFi9S7d2+rAgAAjQHdXgAAAAAAgK0RfgAAAAAAAFsj/AAAAAAAALZG+AEAAAAAAGyN8AMAAAAAANga4QcAAAAAALA1wg8AAAAAAGBrhB8AAAAAAMDWCD8AAAAAAICtEX4AAAAAAABbI/wAAAAAAAC2RvgBAAAAAABsjfADAAAAAADYGuEHAAAAAACwNcIPAAAAAABga4QfAAAAAADA1gg/AAAAAACArRF+AAAAAAAAWyP8AAAAAAAAtkb4AQAAAAAAbI3wAwAAAAAA2BrhBwAAAAAAsDXCDwAAAAAAYGsOr8FaBgAAaFLMw6ARI0Zo48aN1pqq8vLylJOTY1V+cXFxCgwMtKqqhgwZog8++MCqAABAQ0H4AQAAmrSbb75ZTz/9tFXVzb/+9S/dcsstVgUAABoKur0AAIAm7dxzz7WW6u6cc86xlgAAQENC+AEAAJq0YcOGqVWrVlZVe8OHD1ebNm2sCgAANCSEHwAAoElzOp06++yzrar26rMFCQAAqF+EHwAAoMmrj+4qdHkBAKDhIvwAAABNnjnjS3x8vFUdPHP71q1bWxUAAGhoCD8AAECT53K5dNZZZ1nVwaPLCwAADRvhBwAAgKEu3Vbo8gIAQMNG+AEAAGAYPXq0WrRoYVU1N3LkSCUmJloVAABoiAg/AAAADLXt+nLeeedZSwAAoKEi/AAAALAc7NgdDoejXqbJBQAAhxbhBwAAgGXMmDFq3ry5VR2Y2eWlVatWVgUAABoqwg8AAACL2+3WmWeeaVUHRpcXAAAaB8IPAACASmo6cwtdXgAAaDwIPwAAACoZO3asYmNjrWrfRo0apYSEBKsCAAANGeEHAABAJQEBATrjjDOsat/o8gIAQONB+AEAALCHA3V9ocsLAACNC+EHAADAHo455hhFR0db1d5Gjx6t+Ph4qwIAAA0d4QcAAMAeAgMDdfrpp1vV3ujyAgBA40L4AQAAUI1zzz3XWqrK6XTqrLPOsioAANAYEH4AAABU49hjj1VkZKRV7UaXFwAAGh/CDwAAgGoEBQVV2/WFLi8AADQ+hB8AAAD7sOesL3R5AQCgcSL8AAAA2Ifjjz9eERERViUdddRRatmypVUBAIDGgvADAABgH4KDg3Xqqada1b4HQQUAAA0b4QcAAMB+VHR9ocsLAACNl8NrsJZxBOTn52vJkiXiz4CmJDo6Wt26dbMq2E1hYaEWL14sj8djrQEat+LiYp144onq2bOn/vvf/1prgcbP7XarR48eCg0NtdYAgH0RfhxBr7zyim666SbfiQLQ1Jx//vl66623fAdesI+3335b11xzjS/YBQA0fO3bt9dHH32kvn37WmsAwJ4IP46Q7OxsJSYmqqCgwFoDND3ffPONTjjhBKtCY2cGufHx8crNzbXWAAAaA3Msm8mTJ1sVANgTY34cIenp6QQfaPLmz59vLcEOtm3bRvABAI0Q38cAmgLCjyOEBjcA7wO74e8JAI0Tn98AmgK6vRwhK1asUPfu3a3KEp0o9T/fKgCbyU6T5r9vFX4PPfSQ7r77bqtCY5eamqqkpCSrsoQ1k4aMtwoAQIPw47+sBb/k5GSlpKRYFQDYE+HHEVJt+DHyWmkA4Qdsygw/Xr/YKvwIP+yl2vDDDD6GXmoVAIAGYcoEafNiqyD8ANA00O0FAAAAAADYGuEHAAAAAACwNcIPAAAAAABga4QfAAAAAADA1gg/AAAAAACArRF+AAAAAAAAWyP8AAAAAAAAtkb4AQAAAAAAbI3wAwAAAAAA2BrhBwAAAAAAsDXCDwAAAAAAYGuEHwAAAAAAwNYcXoO1jMNoxYoV6t69u1VZRl4rDTjfKgCbyU6TXr/YKvweeugh3X333VaFxi41NVVJSUlWZRkyXhp6qVUAABqEKROkzYutQkpOTlZKSopVoTbS0tJ0yy23aNq0aSotLbXWAgfP4XBowIABevHFF9WhQwdrLeoD4ccRQviBJofww/YIPwCgkSD8qHcnnXSSvv76a6sC6m7o0KGaNWuWVaE+0O0FAAAAAOrgxx9/tJaA+vHbb78pLy/PqlAfCD8AAAAAoA7Ky8utJaB+mB006EJVv+j2coTQ7QVNDt1ebI9uLwDQSNDtpd4FBASorKzMqiwdRloLQA2k/GIt7JaVlaXY2FirQl0RfhwhhB9ocgg/bI/wAwAaCcKPerdX+NH1WOmEv1kFUAMzJknzJ1uFH+FH/aLbCwAAAAAAsDXCDwAAAAAAYGuEHwAAAAAAwNYIPwAAAAAAgK0RfgAAAAAAAFsj/AAAAAAAALZG+AEAAAAAAGyN8AMAAAAAANga4QcAAAAAALA1wg8AAAAAAGBrhB8AAAAAAMDWCD8AAAAAAICtEX4AAAAAAABbI/wAAAAAAAC2RvgBAAAAAABsjfADAAAAAADYGuEHAAAAAACwNcIPAAAAAABga4QfAAAAAADA1gg/AAAAAACArRF+AAAAAAAAWyP8AAAAAAAAtkb4AQAAAAAAbI3wAwAAAAAA2BrhBwAAAAAAsDXCDwAAAAAAYGuEHwAAAAAAwNYIPwAAAAAAgK0RfgAAAAAAAFsj/AAAAAAAALZG+AEAAAAAAGyN8AMAAAAAANga4QcAAAAAALA1wg8AAAAAAGBrhB8AAAAAAMDWCD8AAAAAAICtEX4AANAUuSL1z1uGKfPB4bsum65OVLLDut7iim2lz+/bfZvMB4fp95MjrWsld2KSpt9vbX9JS0Vb61EDriCN6R2ttnu85vXPoX7H99Vm6+/37gC3td7gDNc9N1r/Du7rpotDrPUAANgM4QcAAE2SQ+GhAWoRHrjr0qpDrI4Os662xHaM1Zio3bcxL7FBuw8fnC6nYq31zYOdxr3iwJxq362t3r99oL47MUbxh+FoLCCw4m8doKgAa6XJ4VDorn8HbgVbqwEAsBvCDwAA4OMIiNTYDi6rMjk1omOkwvaTaHiKi7VwfY5mrsvRrIwSlVnrsR9hLfXCFck6LyGAAzEAAA4TvnMBAGjivCWlyi7zGkcFbo3oFKEga71cETqqvds4WPCqpLBUBR5rfSVlGZt18TMLNOLpBRr7aZbyrPX74jqIpiHOA9z2QNfvy8Hsg6m2j7Ov7ZyOWtyhscl+D9oOdH1d1PK+a/u6AQBwKBB+AADQxHlLdmr2Zq+8xlluq+QY9bSODtxx0RoZaxZeLVmfp53+1VW44xP14W0DtfCOgfr97OaKsNbv4grWn47uou/vHKacJ8eo9KnRyrlvoL47r7XG7ho6xKFjTumrBcZ9LLy1k85PjNMLtw5TwZOjtf3uXrq9TcVZtEvde7XVS9cO1MaHR6nYuK+CBwdr5mXJurSNGdLsi0PturbRK9cN1KZHR6vkX2NU8ugwLb6us27pGGjc6x6CQnXmsZ317Z1Dtf2J0Sp9cpS2/q2fPjg1XoNCrdtUcIbrjisH+J7/3HEJ6hwZpZv/3EcrHxylEmP/dtzTT+8cH6u21s6F9+qo325oqyFW7WoWrzdv9W9bMd5KUKf2mn67+Zr21/P9wnXhuf21xdiPgocH66uxEQr030wRLZtr4nm9tei+ESo0Xtvix4dr9YQeemxwhJrVNXhwBGjo8I768o5hyvX93UZq05299cKYaCXu9ULX9O8HAMCRs+/jBAAA0DR4SzRrbaHKjUV3XJSOivGvTugYrR7mkUJ5kX5dV6JqGn7IGRioLq3C1ScxXL2aBajSUJpSQLhuvaqfPj81Qce2ClKk2yGH06nI6HAdN7yDvr6xi87yBSAOxcSE+e6jT2Ks/jaui65uG6Qgl1PREV7tyPYaNwnU6ef00+zLknVV13C1DnXJbdxXSHiohvVpq1dv7K83B4fubrWyi1MDjuqlmVcl64ou4UoMdvpaXgQEB6lXl1Z66tq+eql34K4DImdkMz03ob8+OKWVjm8VrJgA4/Yul5q3iNLZx3TRzzd306VxlU7mHS61amnte7uWev4vvfWvoTHqHO6Sy9i/6GZRuuDEHppyrH8wFXdoiHolBCvKekBHYJA6G9v2bhG4a7wNV2iwevlei3Adf1w3vTQ8UvFup4JCAlVeUOzrWtSqZyf9cksPPTw8Vr2jAxTscsht/C06tm+hOy/oq5kXx6vrXqlODRmv9Vnn9tUP57bWSYlBijDu2+lyK7FVrK45o7d+uSRenascQdbg7wcAwBFG+AEAQJPn1Yq1udrqMc/lwzW2ozkWhVtjOoYryDjP9+TnaHr6wZ7AOtTn6M56sEuQ3A6v8tMz9bc3Fuv4l1fq8VXGCbzXoaAW8Xri+GhVGWPVFaJecV6t/iNdr/y+XbMWZeqTPKnNoE56eXi4IowjF09xgT6eulrj31ypv83OUWa51zhfD9UF53TT3Xu0MnC3aqMXTopRgnEC7y3O1+Qvluuk55foqh92KM3czh2q8aclaazZnMIRpEvO6aJrW/m7+uzM2KpHP1ihce+v1f+tL/Htc0hcnJ4bl6RB1QQL7mZRGh2YqyfeWaSh/16sm+YVqMh82Rwu9esX57tNYVqmHpu2TWvMpMlQnpetV77foEd+y9Y2/6pKnOrQKlSerdv1xqx0fbt+q95ZUiJFx+u5P7dS72Dzj1OmlYs36Ma3V+jqL7Zodp5HXuPxOvfvpLeOq9SF6SC07NtRzw0NU6jxdyvMzNTEVxdoxHMr9PhqM3hxql3vDvr3kKDqDyL38fcDAOBII/wAAAAqWZ+tOSVmCwuXhnSKUmhApI5q55ZDXhWk5mj2wY5k6orU+AHhCjHOz73lO/XkGyv08Pzt+n7ZFk18c63eScvVD4vS9UmmFFElr/AqZ2WKjnvxD1319mKNeC9TWc5wXTm6mZqbRy2eYk1+b6HO+SJNb8zbooffW6TTf9ypYl/jkHBdN7Z5pel2HRo6uKX6Bpo74dH8acs1bmqmvl6VpVe+WKGJ83bq91Vb9fqSAnmDzKAkQTf18A9CWp6dqaueW6aJv2TorVmpuvL5pXo8zWPsnUOhia10a68qbVz8PCWa/PEy3TVnh37bsF3PfJiq78zX1OCK9LfrKN6Uoft/2K61Vpbk3Zmjl79Zp3t/zVGmta4yb+F23fH8Yo1//w/96emVerfAod5DE3WybxRar9IWrtLY19bp2d8z9PLUlTr2lY1aaI7fYgYuI1vrtIOdutZs9TG0mVr6XoRCTXr3Dz26OEczV2do4utr9Xmhcd9Ot44Z2ELtqvzdKlTz97OuAQDgSCL8AAAA8hblaEaaf9yPmPYxGtE2WiPDzdDAq0Vrs5Vt3a6mnBHh6usbL8Q4h96erR8ydp/Ze/IyNP7J+Tr2tZW6bXq2qjYq8WresixtqrTOGRWto+L90+iW52zT/y2u3AXHozmzMvSbryWFQ7HtojWgolWGcSLfPzHY3xXHU6QZqwpU4rvC4C3Rm+/M0+Dnl+mKT9P0Y56UaHbz8Y2G6lXasnR9nOu/qU9Jrl6em6tSc9kZoGEdw32rq/AUaM76SilRcZE25fsXHQc7yqqldON2fZ5jFSbjOY3tGKYA8+48xfp89lZtqfRa5adu0Vvr/SucoVE6qvVBPq4rQoMS/K+111umoLgWGjewpe9yUbdAlRaY9+1QYEKkBlST/1T39wMAoCEg/AAAAL4T6Rnr/ON+uKKjNG5YjJLNEMFTqF9Tin3rD4YzxK1I67zbW1yu3JqeDHvLlZFXVmV8EWd4gGKs+/LkFittj8FHPHnFSjdbOxicoQH+FiImh1sxFQNpGM8gt8harJZDLcLNli4mr9Kz/WNrVJaZXeLvxmKINfZpb+XKKbQWfbwqLbc2qM0ML8b2BXkl2l75tXMEqnnFoKveEm3K2eOFNdeZXV/MZeP5tzADrINhvmZWaxGHO1I3XNBNb1xsXS7qoPOsF9cRGKD4PQd/NVXz9wMAoCEg/ADQJJSXl6us7GDb7Td+JSW7fucGDsCrxSm5yjDPWp1hOq9fmK/FhGdnrq9FyMHylnhUkQM4g92KrnIO7lBEiKvq4KgVvB4VWF1FKngLy3ZNoesICVDMHkcvziBjnXVnnqIy5VaceRsn4vm+phqGSif1FdxBbt8YIn5eZRfujniiQ917zQITEebeNYZGbqXbVvB6varIOioc/CtXVUFpedX78JYpp9haNl7BGLNfUWUOl5qFWk/KeP45FWlNTRnbFFqvmbckT69+nqI7P6vm8sUWzdq1H5VU8/cD9nQ4vpv4/gOwJ8IPALZlhh0//vijrr/+eiUmJmrTpk3WNU3Hn/70J51yyin63//+px07dlhrgeoV7Rr3w6EAl9n1wav81GzNqkVuWJ6Tr5V5/pNgZ0ykRreodJIe3EyT7h6hvIeGatF1SRpdJQXZO0Ao37FTS6ymI65mMTq9TdXDlza9m2mQ07x/rwrScjV/V/hRomWZpf5WK44gDesQWilwcem0cwdr+2MjtP7O3vpHB6c2bspXum9bh9p3ba4BlRt3GNuf2TPC393EW64F62s/iqfHW+kJGq/1HvFFFR7PHi+Gt0gLNpf4n5MzWCf0ilDlBhjO6BY6rY3/Ps3wYvbGPbY/kPICLd/m38bh8mrd0o164kfr8nOWlu8s0tK1WXprZqbmVtuSZu+/H2DasmWLnn/+eR199NG69NJLrbWHzjXXXKOjjjpKzz33nO+xAYDwA6hGcEigkuNClBy5+1c+NA5m4DF16lTfQU+rVq10zDHHaNKkScrIyLBu0bSYv3x9+eWXuuyyyxQXF6cTTzxRr776qrKyGIIQ1TDH/dhkjvth8Y33kXPQ4334lGXrvaVFvpN0hytCt17YUePbhyq5ZbSuObu9zgl3KjgsSK2Li7Rq70YUVZVn6/V5BSo1dszhCtOEi7tpYs9wJceG6qhhnfXhKbGKNo5ovOVFeu+Xbdo9vIhH0+dvU6oZaDic6n9UF/1nUJS6NjO2G95JD/UNkDsgQG2iyrUh06PilHS9k+Ef1DQgvrXeGtdWpyUGq52xz1ed01OPdDEHQ/WqbHumJi2uaFJSC2VeFVsBiDMiTCOTIjSmQ9iurj3759X03zP1h5kwGM+px5huevvYZurXLFjdOybo+cvb6/hQ4468Hq2fv1kf7rQ2qylvgT5alCdzXFNz/I8bz07S0Wb/JYdbQ4/ppLf+3ENf3TxIq65M3MeAp8Bu5o8O//3vfzV69GjfjxA33HCDpk2b5muNeah5PB79/PPP+stf/uJ7bHMfzH1JS0uzboHacLndatUsRF2aBSq6mlmvgIaM8AO24E5oq2n3D1fmg7svGf8crvQHhmnjPwZr+e199dn5bXVG3H7+yQeH6tw/ddP0u0co9+HhSrl7iFLuH6Ed/xyob85J1JiKzutocEpLS/Xtt9/qqquuUnx8vI477ji99NJL2rp1q3ULmMxg6JtvvtEVV1zhe51OOOEEvfzyy9q2be8JNtFEec1xPwp2j3VRy/E+/Dz68bsU/S/T7LbhUHTbRP1vwmClTOyrFwaF+afQLcjWo19n7jHgaXW8mvXDKj26odS4V4eCmrfQw1cOVIrx+T7t/FYaYJ7se0o1d9pK/fWPqs1U8ldv0G1z/FPOOkMjdcNF/bTiHmO78+LV1e3fbvoP6/We2ZCjPFePTknVHHNQT4dTyb2T9ekdQ7XO2OeXRkT4AhZPQZ6efG+tvqkytsdBKivU2mz/k3aGNdOTNw3Q1AsS1LuGR2XF61N13dQ8ZXvMTCJEZ5zSS/PvGaplf+mia9r4A5rsjRt15RfbaxVcLf9lrf6b5v+7xXVur6n3jVT2w8P0y4kx/pCpKE9PfblF1riqQBWpqan697//rREjRqhNmzaaMGGCZsyY4esWdqSYj23ug7kvrVu39u3bf/7zH2003ieNjiNQ4y4ZogzreHfzX5LUd3+fHc5w3XPjsCrHyBXHyZvvG6KVd/TTFxe00+XtAqvviujjUo++7fT2jYOV+dgIpd0zRH/cM0xZjwzXkms66S8d9rftgTkjW2qK8TmT//hILTk1ylq7J/8+vHH9QK375whtf3CIFl7bWbd0rNljB/forNXGc858cJgWnBZdgx83Hep3fF9t9r1ew/RutSM8O9SmQ3ON3T3FGBq4Gn7NAg2c06nY8EC1qHSJiwhUy8ggtY4NVbfW0Tp1WHt9eHMf3dd+75g6OK6l/nfLAL3/p5YaFRfgb9ZscjgUEhGuE0Z21Pe39tQtbYi4GwqzRcPXX3+tyy+/XC1btvR173jllVdo0VBDZhDy3Xff6eqrr94VGL344ovKzMy0boGmyaulKbnKtLqNlO/M1fTNtT9h8eRu0zXPLdU/Fu1UVuW+EN5ybVm/RRNeXKanKk9Vsj+FOfrHpIW65Ietmp9baRwM46QmL2uHnntvkY77Irvq4KAmb4k+fn+hzvh6qxbnWwOB+nhVlJOr/320RGdPy1fF8BXZa9fruGdW6PHFeUo3m5pYvJ4yrVuVpiufW6SJq+s4oGd5riZ9v1WrzPl5fYz/BroUVeOMvUwzvl6k0W+n6uONxbsGYTXvp7yoUD/OWKmjn1+nHwus1QerOEd3v7hEE+fnKbPMK4fT2LcQl3Hq4dHWTRm68+UlemBDnV4B2My6dev0xBNPaMiQIUpKStKtt96qmTNnWtc2POa+3XLLLWrbtq2GDRump556Shs2bLCubdhcMXG6rGew4qzj3YT28boieT+ndMaxbGhoQJVj5Irj5IToEHVOjNLJQ9rplRsH6rsTohS75+eQO1TjLuyvOePb6cIOoYrdNXOVQ87AQPXslqj/Xj9An46JUDVzYB2YM1gXndVeZ0a5FRroVEi1GUOgTju7n2YZ+zCuc7jaRQQoJjxEfbq20lPX9tULvQMPeFLrdLvU3HruzYNr9mEbEFjxugUoao8xroNjY3X3+AFafF17Hc8PpI2Gw3skY9gmbMWKFerevbtVWUZeKw043ypwMNyJ7TTv1nbq7TIOtovy9cNy40Db/FA2PqAjo8I1tE2woq3pC4s3bdCIf63XPOu4zRkaq2dv7qlr4/z928vy8/XNoiz9vsOjsGbROrtftDqYP1Ea15VmbNLxT6XoJ8bQOnjZadLrF1uF30MPPaS7777bqg6suLjY16VlypQp+vTTT5WdfXC/aZoHZ+3atbOqpmHkyJH69ddfrerAnE6nxowZo3PPPVdnnnmmLxipKfPXPvOgt4oh46Whh75vNxo+d2iwerUMNg6cjRPobflall1eyxYlBqdbbeNC1C7cqeK8Qi3KKNF+J3KpYGyXnBCmpFCHinYWaml6saxhSarlDglSlxbGSUaARxmZ+VqeV78n/O6QEPVvFaSg0hKt3lKg9Fr1pHEo2jyBaRao4LISrUoz7qcex3Z2hxh/t/hgNXN7tWN7vpZkle2eLhiN15QJ0ubFViElJycrJSXFqmpmzZo1+uCDD3yXefPmWWtr5rzzztP7779vVYfG+PHj9cYbb1hVzQwaNMj3/XfOOeeoffv21tqaCQgIqDqwetdjpRP+ZhX1xaFeJ/TX3D9FKHDX+bZX6b8vU7e3t1Xf0ssVoUdu76e/JjiNg+QyLV+5XYsLze97h0KCA9WlTYQ6hfmntzZn/fr4vQU6d46/y6LZ3e3Es/vrkxGhvsfzlpdq2R9b9UVqkQoDQzS6TwuNbe72BQ/e8nw9PWm+bllT8092V3iUbjmvqx7sFeJrDWjsgFJ+XqSOH1ee31tqN6yn5p7bXM2cxnF6bq7enJWljVHNdPWgSMUbx/5lmZt09GMpmrGfhw7t001pl7ZUtMOrTTMXq+PkHbtC7+o51G1EV704MNgX/M6aulS3L6t4gABdc+0wvdDVeObG83706bmamFoPp9QzJknzJ1uFn/mjXmxsrFWhrg4UkgGNjidvu/759gpd8MZynf/aMp34nznq+2aGUny/OjoUlNBMp8VXfGM4NHBssq5s4Q8+SjLTdeFT83Tq5HV64PsNuuu9Rer37Dr9bDaBNm4REJeg2/oF+jfFYVFUVKTPPvtMl1xyia+Fhzl45+uvv37QwQdqxuwjbfbHNgeJNcdMYbA41JeygiItWJetH9bkanFdgg+TcQCfmp6n6Wty9FtNgw+Tsd3atBxNW52tWVv2H3yYygqLtSzVuH1KXr0HH6aywkLNScnWjNTaBh8mr/F5WOC7n+kb6jf4MJUV+v9uU1fnaB7BR5P3xx9/6MEHH1Tfvn3VqVMnTZw48aCDj4bs999/15133ukLgwYOHKjHHnvsoEOhQ8oVoXH9w/xBRFmZsn0zKzkU1yNeZ0X6b7Jf3hJ99a11jPy/ZTrthQXqcv9cXTq3QL67cgbptBPa6ljrUDewTRs9PizEerwCvf7mPPV7eZUmfpuqBz5fqWOfWKR71pjdEY29cIXqsrEtlFBxiL0/xuMcN7aLpt/RR4/3rgg+9sEZoatGxSrWOGv1lu3Uoy8v0uVfp+re95dq4vIyFRWWKq08SD1qmw8Yj139CbFXK35dodFPL9CIpxdVCj4MxjY1eZpoeAg/0AR4tWHJFn25wzrKdQQqsWLORVe0LhsY5u/m4inR+5+naMoebabzNm7U3dOzNW9Vpp77dp1e20RT30Ot0Dgh+OSTT3TRRRf5Buk8/fTT9eabbyonp+ovATi0zIaBDBYHAE2X+T2wbNky3X///erZs6e6deume+65R4sWLbJuYV9mqPPXv/5VHTt2VP/+/fXwww9r9erV1rVHRlineJ3fwjx98ypv1Xr9bak/eHCGxGh8/xDVqnN2SYHe+CBF7+T4j39dMc11YWfzMRwaPaSlulktp7csWKtbFhbtHhPKVJynp75I008bd+j9GRv099921iwgDYrVLScnaHiU8Tilhfp8WZ4/fKmGq0Wsjm/pb5lStnmb3qs4DveW6o1Xf1XIxJlq99hyvXBQw7y51GtgB3311+EqfGqMih4ZqjmXttMZzSufGjvUc3QPzb1joBbe0V/P9rJe3cDmeuaWPpqYZJ1LOIN16cUDtPC2brqqmX8VGi66vRwhdHupX5W7vZRt3aijH63a9M0ZHq+P7u6i032D4hXqmefn6KY1Xt92c43t+pjdZfIzdP79K/QBP2sdGgfo9lJQUOAbjNPs0vLFF19o586DnaLgwMwZYKKi9jWQlj29/fbbhySsGD58uK9p8Nlnn+0b0M5EtxcAaCT20+3FPDVYvHjxri4tZmuP+tali3FMdvrpVnVomDOdmcFNfevdu7fv+8+8mM+jwqHv9uLWueMG670BgXJ6SvXxO3M0viBZK65MUKLTq9K0DRry1Hot2PM3usrdXsoL9OQzv+uOvUYrdurcS4bpvf7mgMkeLf1+gXp97dUDt/XXPYnGdsbjvfv6LF24qJ5+AAxJ0Ff/7KTeqel68NO1eqt5F2Vc3EKhjr27vYT27a608XG+7irb5y7XsNkBumxAlDoGeZS6KUv/m7VNS2owAHXlbi/5OSUqjQhUtG+K9ApelWVv03XPLdcrW83Xx6HBpwzUr8eGGa+8R1+/N1MnzTb+viHx+vKfXXXSnmOTlOfqnsfn68G6TC5It5dDjvDjCCH8qF+Vw4/yHem6/NWNWlRufJS73YqLjdBZR7XVFUmBMsNrT36mLnxwud43PiiDe3fTZuODMMYMnjet1+B/rddCGnYcGtWEH/fee6969OjhO7gyD1Ly8/Ota9CYDB061HcQaP7XHEG/CsIPAGh49gg/zPEtzB8fKgIPczwPHJjZGqZijJA+ffoc0vDDGRmvTyd20SkhDnl2ZujPD63QlNJoPTuxj25o5v9x79nnf9eNa/Y4kK1R+OHQoJMH6NfjwhUgM2RYpmbvSW8/0EMXmj8clufpgX/N171p9XTa6ArWkDZeLVlfLHNc5tABPbR1H+FH4ug+WntWjAKN/creVqiSmBDF7Rp01avibVv1l5dX6JXdc5xXa3f4YRRejzav3qS/Td2mP5xhuvTkZF1lzZSVtfgP9XgtQxnefYQfrnCNO66lzh2QqFPNVjieEs34bYum5xTr+1826+e6/HZH+HHIGX8xwF5cMfF6/bZBWnjnIM2/tZ++ubSjrm7nDz7M5PqXHzboYyshdge5FFrxLijzqJAo8LAyW36Yg55NnjyZ4KMRmz17tm677ba9gw8AQKNgTvlqjnHx6KOPEnwchKVLl+76IadK8HEItOvXUsf4ZinxKn1Zpr42j2XLcvT2Qmt6cmewzhkaq9rNuupVfunu0CQ40Dg4droUvmtUVeMYudLsV3VWXqTfrODjQMICrMFYjf+Pbh6iqJxsvfz9Bv13Sb7yPP6pz5++OEkDD6LPT/n2dF356lr9b1WuZv+xRTf8b71+9s2+5VBslxY6KcR/u2qV79Sb36bqq4rJBb2l+nXWev39mzoGHzgsCD/QRHhVXpivj75cqnOm5e/qj+gp92rXZ7nx4RpS8RmPw2Lw4MG++fbR+AUHB+vEE0+0KgBAY2J2CR01apQcDg6EDpbL5dIJJ5zgmy3tkHGG6ZKBUfJlH55ifT5vh/zn2V79Pm+rlliD+rfsXsOBT/fiUKh79/6Xlhn35zWOkXdNUe5SqG+AvMOvrFJDFm9xjv7+wmJd/eU6TXh1ka5dXCKPue+JCbrWN05JTXiVvW67fq40Unb59u363pp23eEOVc+WvA/sivADtmPO9vL4B6t0/eRVuvb9lbr8zWU647n56nDv7zr7hxz5uvFZyrKLtMX6UHVFhyh5H6mxOUPMhZ1CFcNnYb06+eSTffPqm1Ox3nzzzb5BNdF4mIGHOR3uu+++q61bt+qFF16wrgEANCZm+DF9+nRt2rRJzzzzDEHIAZiBx3HHHaeXX35Z6enpvjHLDmX4EZQUrwtaWS0gHAE6/+Ih2nz/MN8l9ZpEdbH+VI6QGF1aq4FPHUqICrS28yozt8QXsmzMtQ6aHUFKNrvWVMcVplP6R6vr/lpL1EF2QZkqMpiyzB36dptVmDPXLM+Vr8GGM0C92wT719dAbqFxn9ayj7dU2yqaoThcigiylmE7hB+wHU9Rvr6YtVmTZm7Wi7O26LV5W/Xp6jxtqGYg05LNuZpf5P8QdYZE6YQO1b0lXDrhqM564/pBxpfMAL09LNRaj/pgHiyYg2f++9//9g2Y+csvv+imm27yTbNa3+bOnavMzMwmdTFb19SnoKAgnXHGGXrnnXd89//RRx/pz3/+s8LDw61bAAAaK/O715zh61AHIaeddtpe31f1fTG71dYn83jl2GOP1UsvveQLPL777jtdeeWVat68uXWLQ8Wpowe3UIeKRMM4OY+ODFJCVMUlQKEVA3c6nBo6qKX6HuwZnitcI5Pc/hNDT7kWpeb7unfM2lgu32+ETrdGdY1WmLm8h4hurfXCxX20/IFhWjAuQd3r+ewyf3uR0q28Y08lpR5VzBIe6Kr5A0eHuqsGRA63wq3pfeUtV26N509HY1PP/zyBRqZou95aUuxPf51BuujkdhqzR7YRnZykf/QzxwxxKNj4ZCzOLbauQX0zDyzMcSOefvppX//jGTNm6MYbb1RCQoJ1i7pp1qyZWrRo0aQu5ujzdRUYGOgbld+cOcY8oPz44491wQUXKCIiwroFAMBuDmUQYrYcrO47qz4v5mPUlXlccswxx+jFF1/0BR7ff/+9rrrqqsMQeFQS2kzjewX5Tta95UX6ZX663pq75yVLy30/5jkUkNBSl1X7Y96+ONVzWJIujfNv48nL0rsrzFFEyvX13G3a7Es/HGozoL3u6WAFJBVCovS3E+LUyumQIyBQLcpKtLFSN5X6ULwpR/OsHyrdLaI0ale3Hofatwjxd1n3erU5u6bH5w5Fto/VmEqtO5yhURqZ4P937S0r1PLMfaQtFYyrK9+iyqQxaNAIP9DEGR/s32/QV3n+L4ywNm305S299dxxrXTZoATddnoPzby6jQb4BnzyKm/9Jv1rRZWGcjhEzAOOkSNH6r///a8vCPn55599B2Hx8fHWLXAomYHHqaeeqjfffNMXeHzyySe68MILFRlZq87EwEFyqFmzMPVJCFVixa9xlbgCA5QUZ/bLDlGbUEfTO5hxuNQ2Pky9E4LpjonDYs8gxPxutmvXGPP4Y+zYsZo0aZK2bNmiqVOn6uqrr/YFKkdCqz7xOjHMfxxakpqmK9/8Q+Pe2vOyXHcvLrF+zAvW2UP2MfCpI0CjRiTrydM7+C7/OaeLPpowWLPOipUv+/CUavq0VH1mTQyQt2KD7l9ujqthbBoUoTuv7q+vz2mr6we31JVHddDHE3rpjjYu4xPb2LuiXD0zbbvyfFvWo8LtenOp/7k5gmP0wPgOGpccrqF92+nZUebsNMZjF+foy5UVbUAOzJwc4fmLWuvoZm7FxcXqrova61RzVhvjNc5Zs1XfHHDqXI+Ky7z+AMQRqF7tIzWoQ5R6HaKuP6g/THV7hDDVbf2qPNVt2daNOvrRFM04iIyiWYckTbk0SUdFVIwovSevSnds0/WTluuVA6XBqF41U92as73cfffdVlUz5eXlvq4x5gwx5nR85ol5Ta1bt07t2rWzqqbBDJDMMVVqwmwlYg7aZjYVNpskm33AD4bZbSkpKcmqLEx1i1oITGyrn25qryGlWzXukeV6xzcZlFNderXRP8bG6+SkYEVZUx16vR7t2Jqjz37bqPt/2q71FZ/9rkg9fHMPXVnDdMBbuE0tH1rl2+6fN/XQNZX6t5ekbtDol9O0ttLHvyu2lT65qZ2GuK0VxvfEhlnLNOjLXKvezRUeqcvHtta4HpHqEumSt6BIi9Zk6j/fbdLX26t+pzhDI3TJ0a11SfdIdY92K7CsTBvSc/Tpr6l6clGBf5BD42D76qsG64WuXk39aL5O/KXQf9ID1NQeU90mJycrJSXFqmpu8+bN+vDDD33T5JrfzTU9rTC/Z95//32rOjTGjx+vN954w6r2zwxxxowZ49uvs846Sy1btrSuqTnzO7Tep7p1hOi2GwbqiY4u46StXNM+/l3HTS+q9v0e3KmTll+XqPZO/+fZVY8s1f+ZH0eVp7rdH2+Zls1eqZMnb9WGSn9Gs1XEPZf10N87Bsq9j49Ts0XKJ1MW67zZ1swzB2l/U92aXNFx+t9fuuqi5tUcp3vKNOubRTruuzztb97A3VPdepW2rUjNmoX4B5CtxFOQrbufW6THfFP67mOqWx+HRp85SD+MCTWus5QX6r/Pz9GElJq9B6rFVLeHHC0/AENWygad9O+lmjgnRxuKPP4k18er8uIi/TpnrU56muCjITAHGTMPUJ577jnfQde0adN03XXXKS4uzroFDoZ5sHbSSSfpf//7ny9I+vzzzzVu3LiDDj6AeuMI1pWnttGQIGnDws36xAo++o3tpV8ua6cLk0N2BR8mh8Op2LgYXXpKT80YH6/dA/47FREaqBbhNbyEVRzCOhQeGlDlulYdYnX0Hp3dYzvGakxUpe2NS2zQ3odVzsgWenlCX714TJxGxQcrzrjvls0jdPzQZH02oaduiN/9XFyxxgH+Lf306rEtNbZViFoat42JDFHfzvG6d3x//XBSlGLMG3pL9P6sbUpXgI45ob3+TIMsHCFmixCze2pjbBFSEXg8++yzVY4nahN8HCruhJa6qL3/hN9bnK33F1UffJiK1qZrcqa/z4nZQmL8gAM0Q/B65SkvV3ZOgX5bkqY7X5mnoe9XDT5MnoIc3f/ifJ32Rbp+3V4mcyKYCl5PmVKNx73rxQX6cy2Dj5ooz87UFZOW67EVBcrzVOyAV6U78/TWJ4t16vf7Dz6q8mrJtGU6f+p2rS22Wm8Yr0VO+lbd9cpSPeELPg7Eq5m/pmpKZrl/e98a4zuHaSMbPFp+HCG0/GjA3AHq3DJErUKdKisq1srNhdrKT2p1V08tP/bF/LXFPPgyf30yf4UyZx/ZEy0//Nxut2+UevMXLnMsj5gY3+lUndHyA/UhvHMnLbo2UcnefD329Fz9NdU4pIxppa/v6qTjgx3ylpdo3qJ0fbC2UNu9bnVIjtMV/cLV3Ox07SnVx+/+rnN+L5HHGapLT0/SCbuGpnEoPC5GJ7UOMA5RvcrL2KGv0kp3H7iW5OrC94zPKVeU/v3XPrq5RaUgw7jfd16frYsWVXwZOHXGhUP14eBAY6mCV2unL1KHj7Kt2uTUUWcO1PejzV8HPUpfl6GXlhepZZdWurxjkAIcxgH3ilXq/dIWpRrP5eyLB2nywCA5jUOzHWlb9fLCnSo03p+XDolWktt47mU79fDT8/T3jcZeu6P17MQ+uiHWq2U/LNSAL3LFiFSosXpq+bEvB2oRcqRafpiBh/m9aD7+2WefXW9jipkOScuPBsepuBah6hjlVlB5udIyd2pV/uE9lQyLClPvFgFyFxdpWVqRttdhjBFXSLD6JgQruLBQC9OLddBPxelWx9ZhauM2Pt+35mtFXh0HPKHlxyFHyw9gT2WlWpWWq59WZ+uXjQQfjYV5Qn/00Uf7+uiaB10VfXTNQU7hf33+9Kc/6dVXX1VGRoa++uorXXrppfUWfAD1whGoc0fFqZ1xdFKasVVTNvmPREPbx2h4kO+3T23+faXGvrFWj/2yRS//ulF/fXOhLp5V5P/F0TgQPbZXjHwNITwF+t/HK3TBG7svf128+1fTrStTNb7Sdb7gYw/eklJlmz9zGvc7olOEdo2P54rQUe3Ngf+8KiksVcG+jneN253RPdjXVLwsa4sufmGl7p26Qde+slrv7TSfmznwnvHczEYngTE6p7s/TPEUbNNNLyzXXVNTdd+Uxfrzz/5fVB3uUJ3QzZrGsixHk5cWqszhVLchiTqFvuZoQBpai5CKMcTMfTH3yRy/pD6Dj6bDo8ytOzVzTbamrcs77MGHKT8nX7OMx5+xsW7Bh6m8sEjz1mbr1y21CD5MnjKtSc3RtLV5dQ8+cFgQfgCwHfNEv7rR2c1BPJua0aNH65VXXvG9Dl9//bUuu+wyfkFAg+WMaqGLupihgkcpf2zXEutY0jxfqjhlik6IVL8qs3KV64fpa/X3r9bqrk/W6K7fd9bb+Bfekp2avdlsFu1Qq+QY9bSOmtxx0RoZaxZeLVmf5x+HozrlObrtidnq/u9FOu/djfq5Ysp1j1el1nPzGgsFvnylRNNnbdb/zd2qz+dkauquNtxe/ZG5O7QJC6qYotGrOSuylW7cjzMsVhf3NFu0AA1PdUFI//79rWsPnT59+ug///mP7zErZo8z9wVA08X3JABbM4OQinn5m+JBz8MPP6wrrriCFjBoFFp0i9XQAIfv17TZKTtVkRUUrM/WnBJ/S4mwpLb68e+D9ePFHXTn4FgNinHJk7FVj32Xqsd/StOkJfn1N9uAt0Sz1voHE3XHRekoq6FUQsdo9TCPoMqL9Os6/0wI+1JeUqIVG3bo45QilTmdatEsUped2U7nRhrP0+vRqnnp+rHMbO2Ro0mfr9aVby3TGZ9uVfquXyFdGtXeHHDPYNx+bWbhrn71RRty9Lv5ujjdGtPDavECNGAVQchdd91lrTl0br31Vk2YMEGJiYnWGgBNHeEHAABoAJwa3C5CvvHiPAVavHl3pFCetUUTf8hVtm+VQ+7QUI0d2EaPXdhbv90zXGl39NKko5upS7037vJqxdpcbTUe1+EK19iOZusKt8Z0DJfZC8eTn6Ppu1OKAwrr01Wr/95frw6PULi3VPNnrdRZX2Tvu+WIIa5bsh4ZEORr7eHJ36F3l5XuDluKd2rxVn8oFNkmUv38TUIAAEA1CD8AAMCR5whUlxZmlxfjJL+4SOurNN/w6Lfvl+jY99P0Y1aZ2WtkF4fTpfjEZrr2tJ6ae2sX/bmee3WVVLQ6cbg0pFOUQgMidVQ7txzyqiA1R7tmPqyBNs2CFWr133EY99embTOd0b7yoKlVtejUXp+Na6UevtYwpZr23Tq9Xzkp8RRpXbZ/tgJXVKi6VekOBAAAKiP8AAAAR54zUAnh/kVPQZm27dmgwlumeb+t1jEPzlaX55br1u+36NN1Bdq+a95Fh8Lj4zXp3FZqZwUM9cFblKMZaf5xP2Lax2hE22iNDDcewOvVorXZqjy3y4GkL1ipPg/MVr//W6+puQ41bx2nB6/ortsT9t7hxB4d9c0VbTXETEu85Vo5Z6XGz9hzKkmvthdYUy06jNfP7EoDAACqRfgBAAAaAJdCzRYOpnLPrvE+dnMoIjxA4cbp/5o1mfr3lyt1xtNz1PIfc3Xe1B3KtLrERHWK0xn1OYmRp1gz1vnH/XBFR2ncsBgl+/qgFOrXlOKDGlw1OytfK7YXaeGS9bpiaraKvMaBWHCUrhkWqco9dtr27qzvxieqf7A/+Fj+2x86cfI2pe0ZCMmrojKPP/wwDumCA3wLAACgGoQfAACgAfCouKIVh8uxOwxwhmniX4Yr98nRyrm/n+5Lqtq6oawgX1O+Xqe3tvlHwnA4AtU2qj5bQHi1OCVXGebdG/tyXj//4KOenbm+FiEH4g4MVIeESI2IrzobS2ZWkbKtzVvFBO96vnHdOurzixLUPdB4Dp5S/f7TMh37/lat2zXQR1UBxmvlf7blKtg7MQIAABbCDwAAcOR5SrTFGs/CGexWdEV+4SnSqhwpzG2c5LtCdOHYOLXdI9twx0So764uH2Xamn/gUOJgFO0a98OhAJdT5ngf+anZmnWA8T5cLZM085FhWnNXP/1wfrw6Vtrvdq3C1Myqs3aWqtT4rzuulV6/KFG9zdFUzW4+Py3TyZ9t15Z9Ph2HokNcvvDD6y3V5tz6fd4AANgJ4QcAADjyvMX6Y2uZbyYTZ0iw2u4avLNc38zO1Npy88TeoYTenfXzdZ00cViczukTp6uP7aTvbkjWWLOLiNkNZNM2fb7Nt2H9Mcf92OQfWNTHN95HzgHH+yjfmqVvtvjHCwlKaqvXz4jXUYnhOnpoJ715dITMxh1mt5ovF+Wo2BGkS05rr+PN8UQMXk+ZSlsk6sXLeuijy3dfnhsS6p/21uQIVlKUGcYYj7WjQCsK/asBAMDeCD8AAEAD4NGc9Tt942DIGaLuLf0hgCl/zQbdOCNfvgYdDpfadU7Uw+d315TLuuvFUxI1Nsbf+sFTkKfHP0nT0n10Eak1rznuR6XBRms63odnp/792WYtM1uNOAM0dExXTbtjoH74c6IGWgOZrvptje5bWS53y3hd19U/243J4QrW0F4tdGbvypdmOj6hUveZgFD1aG4+c692puVq0cEMQAIAQBND+AEAABqEzJXbNc9s4eEMVP+2wTLHFfXxluqbTxfqmClpmppZql0TvFi85aVasXyjrnhuse5fdygSAK+WpuRag6pK5TtzNX3zHjuxDztWrdEJr6zTlM2lKt21iVelO/M0+cslOmryNl+3loRO0erl2h341ERgfKT6hfhDlJl/ZKvK7MAAAKAKh9dgLeMwWrFihbp3725VlpHXSgPOtwrAZrLTpNcvtgq/hx56SHfffbdVobFLTU1VUlKSVVmGjJeGXmoVwAE4gnXT9YP0n05OFa5crU4vbNbeGYND0bGh6h4bqKgAqaigRGvS87Wx2Lq6wXIotnm4esa45C0q0rLNRdpex5ym89H9tOTUKLkLt+nKR5bqNdIP1NSUCdLmxVYhJScnKyUlxapQGwEBASorqzQQUNdjpRP+ZhVADcyYJM2fbBV+WVlZio2NtSrUFS0/AABAw+At0ruzspTlcSgkqZlOirDWV+FV9vZ8zVyzQ1+v2KFpGxpD8GHyavu2PE1fna0ZG+sefJhB0SndwxXg8GrL4i36iOADAID9IvwAAAANxtZFG/VyukcKitbF/St1fUEV7viWurCdcRhXkqtnf9quHGs9AACoHuEHAABoOMrz9O+vM7XJ69Twoa00iPSjGk4dNSJefV1erZ69Ts+l04MZAIADIfwAAAANytalKTr/zVWaMD1P5UHWSuzmcKtoXapunLJcF37NQKcAANQE4QcAAGhYvKWatWCLJs3cqt8LrHXYzVuiX+aZr882zSu01gEAgP0i/AAAAAAAALZG+AEAAAAAAGyN8AMAAAAAANga4QcAAAAAALA1wg8AAAAAAGBrhB8AAAAAAMDWCD8AwMZuueUWPf3000pLS7PWAAAAAE0P4QcA2Njvv/+um2++Wa1bt9aoUaP0zDPPaPPmzda1AAAAQNNA+AEATcQvv/yim266yReEjB49Ws8++6y2bNliXQsAAADYF+EHADQxXq9XM2bM0I033qjExEQdddRRev7555Wenm7dAgAAALAXwg8AaMLMIOTnn3/WDTfc4AtCxo4dq0mTJikjI8O6BQAAAND4EX4AAHw8Ho9++uknXX/99WrVqpWOOeYYvfjii9q6dat1CwAAAKBxIvwAAOzFDEJ+/PFHXXvttYqPj9exxx6rl156iSAEAAAAjRLhBwAcQsXFxdqwYcMRuxQVFVl7UntmEPLDDz/ommuuUUJCgo4//ni98sorysrKsm4BAAAANGwOr9nhG4fdihUr1L17d6uyjLxWGnC+VQA2k50mvX6xVfg99NBDuvvuu63Kfh588EE9/vjjysvLs9bYi8vl8nWNOe+883TGGWcoPz9fSUlJ1rWWIeOloZdaBQCgQZgyQdq82Cqk5ORkpaSkWBVqIyAgQGVlZVZl6HqsdMLfrAKogRmTpPmTrcLP/KEpNjbWqlBXtPwAgENg7ty5+sc//mHb4MNUXl6u7777TldeeaWva8wll1xiXQMAAAA0LIQfAHAILF261DeTSlNh/tplzhoDAAAANESEHwBwCDSV4MPhcGjUqFF65plnNGfOHGstAAAA0LAw5scRwpgfaHKa2Jgfr732mi6//HKr8jPHxzCDgsPp//7v/7Rx40arqj8jR47Uueeeq7PPPluJiYm+dampqYz5AQCNAWN+1DvG/ECdMebHIUf4cYQQfqDJIfzQ9OnTD3v4YYYUv/76q1XVzfDhw32Dm5qBR+vWra21uxF+AEAjQfhR7wg/UGeEH4cc3V4AAPs0bNgw/etf//IFG2aIMmHChGqDDwAAAKAhI/wAAFQxZMgQPfXUU9qwYYNmzpypW265RW3atLGuBQAAABofwg8AgAYPHqwnnnhC69at0+zZs3Xrrbeqbdu21rUAAABA40b4AQBN1MCBA/X4449r7dq1+u2333T77berXbt21rUAAACAfRB+AEATMmDAAD366KO+ge1+//133XHHHWrfvr11LQAAAGBPhB8AYHP9+vXTI488ojVr1mju3Lm66667fCP7AwAAAE0F4QcA2NjHH3+s+fPn669//as6dOhgrQUAAACaFsIPALCxFi1aWEsAAABA00X4AQAAAAAAbI3wAwAAAAAA2BrhBwAAAAAAsDXCDwAAAAAAYGsOr8FaxmG0YsUKde/e3aosI6+VBpxvFYDNZKdJr19sFX4PPfSQ7r77bquyl9dee02XX365VflNnz5do0aNsir7SU1NVVJSklVZhoyXhl5qFQCABmHKBGnzYquQb/rzlJQUq0JtBAQEqKyszKoqOKz/AjWx92l5VlaWYmNjrQp1RcsPAAAAAKh35sksFy41veBQI/wAAAAAgDpo3ry5tQTUn+DgYGsJ9YHwAwAAAADqYNy4cdYSUD+uuOIKhYaGWhXqA2N+HCGM+YEmhzE/GPMDANAwMObHIfHqq69qxowZKi8vt9ZgT7NmzVJmZqZOP/10aw325HK5fMeLF1xwgUJCQqy1qA+EH0cI4QeaHMIPwg8AQMNA+IEjoLS0VC1bttSOHTu0dOlS9ejRw7oGODzo9gIAAAAAOKR++OEHX/Bh+uCDD3z/BQ4nwg8AAAAAwCE1ZcoUa6nqMnC4EH4AAAAAAA6ZkpISffzxx1YlLVu2zDcMAHA4EX4AAAAAAA6Zyl1eKtD1BYcb4QcAAAAA4JCprpsL4QcON8IPAAAAAMAhsWeXlwqLFy/WqlWrrAo49Ag/AAAAAACHxNSpU5WdnW1VVdH6A4cT4QcAAAAA4JCYPHmytbQ3wg8cToQfAAAAAIB6Z3Z5+eSTT6xqbwsWLFBKSopVAYcW4QcAAAAAoN59//33ysnJsarq0foDhwvhBwAAAACg3u2vy0uF6maCAQ4Fwg8AAAAAQL0qLi7Wp59+alX7Nm/ePK1bt86qgEPH4TVYyziMVqxYoe7du1tVJdGJ1gJgM9lp1sJuDz30kO6++26rspfXXntNl19+uVX5TZ8+XaNGjbIq+0lNTVVSUpJVVcLnWlVlJVJRrrHgkEIiJVeAfz2A+lNWbLzP8oy3mfE+C44y3mdu6wr47PGdnJyczLgLqHdffPGFTj31VKvav8cff1x33HGHVQGHBuHHEbLP8ANoQgg/7GWf4QcAoEEj/MChcMkll+jNN9+0qv0bPHiwfvvtN6sCDg26vRwhERER1hLQdAUGBlpLsIPw8HA5zF9ZAQCNCt/HqG817fJSYc6cOdqwYYNVAYcG4ccR0rp1aw0YMMCqgKYnNDRUp59+ulXBDmJjY23dsgUA7OrCCy+0loD68d133yk31+ziWXMffvihtQQcGnR7OYK2bdumiRMn6o8//hB/BjQlbdu21dVXX62jjjrKWmM/TbHbiyk7O9vXlWnJkiV8rlXD/NxfuXKlVfl169bNFxwBqB/p6el7deHo3bs3rW6rERISohNPPFETJkyQy+Wy1gJ1N27cOL311ltWVTPDhg3TzJkzrQqof4QfAHAINNXwA/tn/qp1zjnnWJXfl19+qZNOOsmqANTVSy+9pGuuucaq/GbNmqWhQ4daFYBDqaioSHFxccrLy7PW1Jw5flibNm2sCqhfdHsBAAAAANQLs8tLbYIP00cffWQtAfWP8AMAAAAAUC8mT55sLR28KVOmWEtA/SP8AAAAAADUmdnl5bPPPrOqg/frr78qLS3NqoD6RfgBAAAAAKizb7/9ttZdXirQ9QWHCuEHAAAAAKDO6tLlpcIHH3xgLQH1i/ADAAAAAFAnhYWFderyUmHGjBnasmWLVQH1h/ADAAAAAFAn33zzjXbu3GlVtef1evXxxx9bFVB/CD8AAAAAAHVSnzO10PUFhwLhBwAAAACgTq688kp9/vnn1V6efvpp61a7XXXVVdXe1rzccccdvhYgQH0i/AAAAAAA1MnRRx+tU045pdrL6NGjrVvt1rNnz2pva15OPPFEORwO65ZA/SD8AAAAAAAAtkb4AQAAAAAAbI3wAwAAAAAA2BrhBwAAAAAAsDXCDwAAAAAAYGuEHwAAAAAAwNYIPwAAAAAAgK0RfgAAAAAAAFsj/AAAAAAAALZG+AEAAAAAAGyN8AMAAAAAANga4QcAAAAAALA1wg8AAAAAAGBrhB8AAAAAAMDWCD8AAAAAAICtEX4AAAAAAABbI/wAAAAAAAC2RvgBAAAAAABsjfADAAAAAADYGuEHAAAAAACwNcIPAAAAAABga4QfAAAAAADA1gg/AAAAAACArRF+AAAAAAAAWyP8AAAAAAAAtkb4AQAAAAAAbI3wAwAAAAAA2BrhBwAAAAAAsDXCDwAAAAAAYGuEHwAAAAAAwNYIPwAAAAAAgK0RfgAAAAAAAFsj/AAAAAAAALZG+AEAAAAAAGyN8AMAAAAAANga4QcAAAAAALA1wg8AAAAAAGBrhB8AAAAAAMDWCD8AAAAAAICtEX4AAAAAAABbI/wAAAAAAAC25vAarGUAQD157bXXdPnll1uV3/Tp0zVq1Cirgh15PB6NGzdO+fn51pqqNm/erN9//92q/IYOHaqWLVtaVVU9evTQQw89ZFUATMXFxbroootUVlZmralq/fr1WrRokVX5mZ+9sbGxVlVVmzZt9Mwzz1gVgENh4cKF6tevn1X5Pf3007rpppusCjj0CD8A4BAg/Gi6zj//fE2ePNmq6ubhhx/WxIkTrQpAheOOO05Tp061qrq57bbb9OSTT1oVgEOB8AMNAd1eAACoR+edd561VHdnn322tQSgsvp8n9XnfQEAGi7CDwAA6tGJJ56osLAwq6q93r17q3PnzlYFoLIzzzxTLpfLqmovKSlJgwYNsioAgJ0RfgAAUI9CQ0N1yimnWFXtnXvuudYSgD01b95cRx99tFXVnvk+czgcVgUAsDPCDwAA6ll9NKM/55xzrCUA1amP9xldXgCg6SD8AACgntW160vPnj3VtWtXqwJQnbp2fWnXrp0GDhxoVQAAuyP8AACgnoWEhOjUU0+1qoNHqw/gwJo1a6ZjjjnGqg4eXV4AoGkh/AAA4BCoS3N6xvsAaqYu7zO6vABA00L4AQDAIfCnP/1J4eHhVlVz3bp1U/fu3a0KwP6cccYZcrvdVlVz7du314ABA6wKANAUEH4AAHAI1LbrC11egJqrbdcXurwAQNND+AEAwCFSm2b1dHkBDk5t3md0eQGApofwAwCAQ+Rgu7507tzZN9MLgJo72K4vycnJ6t+/v1UBAJoKwg8AAA6R4OBgnX766VZ1YDTFBw5ebGysjjvuOKs6MLPVB+8zAGh6CD8AADiEDqYbC+N9ALVzMO8zupYBQNNE+AEAwCF0wgknKCIiwqr2rWPHjurTp49VATgYZteXgIAAq9q3Dh06qF+/flYFAGhKCD8AADiEatr1xWz1QVN8oHZiYmJq1PWFLi8A0HQRfgAAcIjVpJk9XV6AuqnJ+4wuLwDQdBF+AABwiB1//PGKjIy0qr21b9+e2SeAOjJbWO2v64vZtaxv375WBQBoagg/AAA4xA7U9YUuL0DdmV1fzKBxX+jyAgBNG+EHAACHwf6a29MUH6gfvM8AAPtC+AEAwGGwr64vSUlJGjhwoFUBqIt9dX3p1KkTsykBQBNH+AEAwGEQFBTkm45zT3R5AepPdHS0b3rpPdHlBQBA+AEAwGFinoDtiVlegPpV3fusunUAgKaF8AMAgMPkuOOOU1RUlFVJrVu31uDBg60KQH047bTTFBgYaFVS586d1atXL6sCADRVhB8AABwm5glZ5a4vZqsPp5OvYqA+mQFj5a4vdHkBAJg44gIA4DCq3PyeLi/AoVH5fUaXFwCAyeE1WMuwmbKyMvHnRV243W5+Laul1157TZdffrlV+U2fPl2jRo2yKnvj82ffSkpKlJiYqNDQUK1bt46WH/tgvi4ul8uqUJ3y8nJ5PB6rQmU5OTlq1aqV2rdvryVLlvBdtg+8z+of78vqLVy4cK9unv/617/0l7/8xapQwfy8Mo/BcQiY4Qfs5f333/d27tzZPOvgwqVOl4CAAO9tt93mNU7WrH9dqKlXX311r9dz+vTp1rX2NXPmTO+gQYP2eu5cuNTmMmbMGO/69eutf12oYJzMe0eMGOE1DpCrfd24cKnpxfw3dNJJJ3m3bNli/etCba1evdp71FFHeZ1OZ7WvNRcuB3Pp1auXd8GCBda/LtQXWn7YzKZNm9SlSxcVFBRYa4C6e/fdd/XnP//ZqlATTbHlh9nao1OnTjJOVq01QN2ZXYOmTJliVTD17dtXixYtsiqg7q6++mq9+OKLVoXaGDNmjO97Hqgv/fr10/z5860K9YG2tjZjNu0k+EB9++mnn6wlYN/S09MJPlDv+PypqqioiOAD9Y73Wd3Nnj3bWgLqx4IFC5Sbm2tVqA+EHzZDH0McCuYv+sCB8PmDQ4HPn6p4n+FQ4H1Wd7w3cSjw3qxfdHuxmS+//FKnnHKKVVmCI6WOo60COACv8eW97Cur8Lviiiv0yiuvWBVqoil2e0lNTVVSUpJVVdJzj88kYH+WfmEt+EVHR2vHjh1WBbN1Z1hYmFVVwvsMB2OP91lycrJSUlKsCrUREBCw94kq78uqzGPM7amSx3idolsbL1qwdQV89nhfmrKyshQbG2tVqCvCD5upNvw4+X7CD9Sc+cX032Oswo/w4+ARfliGjJeGXmoVQA18/ndp7a9WQfixp2rDjz5nSEdNsAqgBqYY/142L7YKwo/6sFf40fVY6YS/WQVQAzMmSfMnW4Uf4Uf9otsLAAAAAACwNcIPAAAAAABga4QfAAAAAADA1gg/AAAAAACArRF+AAAAAAAAWyP8AAAAAAAAtkb4AQAAAAAAbI3wAwAAAAAA2BrhBwAAAAAAsDXCDwAAAAAAYGuEHwAAAAAAwNYIPwAAAAAAgK0RfgAAAAAAAFsj/AAAAAAAALZG+AEAAAAAAGyN8AMAAAAAANga4QcAAAAAALA1wg8AAAAAAGBrhB8AAAAAAMDWCD8AAAAAAICtEX4AAAAAAABbI/wAAAAAAAC2RvgBAAAAAABsjfADAAAAAADYGuEHAAAAAACwNcIPAAAAAABga4QfAAAAAADA1gg/AAAAAACArRF+AAAAAAAAWyP8AAAAAAAAtkb4AQAAAAAAbI3wAwAAAAAA2BrhBwAAAAAAsDXCDwAAAAAAYGuEHwAAAAAAwNYIPwAAAAAAgK0RfgAAAAAAAFsj/AAAAAAAALZG+AEAAAAAAGyN8AMAAAAAANga4QcAAAAAALA1wg8AAAAAAGBrhB8AAAAAAMDWCD8AAAAAAICtEX4AAAAAAABbI/wAAAAAAAC2RvgBoEEpKSlRfn6+VQFAw5ednW0tAWgoeF8C2BPhB4Ajrri4WF988YXGjx+vuLg4zZkzx7oGABq+Sy+9VH379tWDDz6olStXWmsBHEkTJkxQjx49dO+992rp0qXyer3WNQCaKsIP1C+HUy1iQtQjPlQdo90Kcljrj6DgkEAlx4UoOdLYH2sdjryioiJ9+umnGjdunC/wOPXUU/XGG28oJyfHugXQcLncbrVqFqIuzQIV7bJWoklbtGiR7rnnHnXt2lW9evXSAw88oOXLl1vXolEz3u/t4kLVOSZAYQ3guAY1Z74Hzfei+Z7s3r277z1qvlcJQvbPFRigJOPffM+WIWoT6jh8J4zGeURMZLC6xAWrVQhvNtQ/h/Hm591vI19++aVO+f/27gM8imrtA/h/d9ML6Y0QEkJChwAJhC4IiggoAlJFQNSrXq8FbKBer1hRsH0WvCLSVJpXINIEROkttEACgVQCpPdedr85sxNIwgYSsgSy/n/Psw8522eZc+acd868Z8QIpaQY/jYQMEAp3Bo27q54eagPHu1gj1bWasjNlbRrlRYWYd+pZHy09QI2Z1bd1VTodm8QNg6wgZlyj0x6ilarQ1FJGS6m5WHnycv4+nAuLmuVx+vKygYPD/TFv7o7o5ebOczFF5K+T1F+AXaduIwPfr+Ev3JvsOurLKSBeTfMb6ORt6c8+SLu/zoBxw18F42HD35/xgedaw6CxPaI36GsAlm5xYhMyMDiXZewrdpvIfWrvH3xx5PeaFfj9aJ6lpVWID2nCEfPpWHR3hTsu9H3biidtIFfDFYKejNmzMCiRYuU0s0rKirCli1bsGbNGoSFhSE/P195pLo//vgDgwYNUkpN0w8//IDHHntMKent2rUL/fv3V0qmJzExEb6+vkpJEToV6DVNKdw8o9eRetTvqzTo2NUHc/q74z4/azhr5IYF2tIyRMak4dvtCVgYU4py/ZPrTd3MA6tmBuJ+GyB2dwQ6hxkKBOq/w6t9XNHfyxIOqnIkJmVh6fZ4/N/5G322GiPHhWBRFzOotCVYuuwoXj5/o9+qalutw45fD2NieI1P0Vjiro7WiIvIRqIxmqewN6QfYK9SABwdHZGVlaWU7kyjRo2Sg7mGiAHX2LFj8fDDD8tnoVUq+Qh50woLC2Fra6uUFEGjgIHPK4XGo7b3wI8vtMZgcWZBqotR0n47+Pf8m64Dt1rVdqQ0OgadlqWi1fX2b6mduGdoW3w90BmtrVRSbZDam4IsfHZEjUeCr1MnmoI10v5y6aRSAPz9/RETE6OUTIOYTSpOqhgSGBh4pV6KWVsNrZeCubk5ysur7AvthgBDX1cKTYEabTv74N+DPDHc1woO8jFOVG0tstJysOHgBbz9ZybiK+S7FSp0HtIFWwfaVuvPS82B1J/XokQ6PmfmFSE8MhkLdqXjTKnyhBocPN0w8x5vTGjXDIG2+nGETluB1JQc/LI3Ae/ty8GlyuOz2hazn+6CF73q8H+mK8WKZeGYee4W952NZfc3wNHVSkEvIyMDzs7OSokaijM/qMGsvH0Q9lxHvBXsAP/KwIcgHUgsbG0wMLQV1j/XATPcqjdS5hbmcLOzqH6zt4CHgyX83O3Qt6MX3pjQFcee9sVd0mCgrqzcPbDkxWCsus8D/d2VwIcgfR9rezsM7ReAbTM74UWf65+u1Ti5Y3onK7gr382rlSdm+BuuMiq1Bo5Vt6PyJranmSV8XGzQpZUzJgwMwOYXO+FZz+q/hVqjhrOB17vbW8Jbem2QvwumSx2wv17ugrdamzWpiis66r/88gsmTJgANzc3jB49Gj///HOtgQ8iQ4xdR+pTv2VmNpgyqTsOTfXDpNY2SuBDUEFtYYFO7b3xxTPBWH+XPeyUR+pFbYXJo1vhIQcz2FioYV0tKqyQBmIPjOmG/dJ3mNLGDn725nCys0ZQu+ZY8FRXLOxiccPttrSsbHfN0czQZxhwta02h4O5cqdMjVbtW2LVSyH4fZgTPJtSw9SITPnMs293TzzgrNRHqS726emJ/nXcr26Hqu2Iq5W+v1L7/i31J9r64ft7XRAgBz4EFTSqMmRqa38NNQ3nzp3DBx98gO7du8uBkNdeew1HjhwxiXp5c9ToNqgz9kyXjnH+1lcCH4JKJdUbdydMG9EJu6d6ok2Ntt7M3ByuSr2qvLlL/V9PByv4utmim78rHh/eEfue9kNfK+VFV6jRLqQdDszsgH8HO6KNEvgQRN/aw8sZz4wJwqHHWyDEQnlAeoaNrYExhKGb9Dz7O7hNosbHrgo1jMoSj430xSA7qWOg0yI1MQUfh0XjyVXReGV7CsLzddBJjZS5oyvmjXSH4SCtDjnJmVh1NAWrjqXi11OZ2J9ahjJx/JEaXI9AP6yc4Ak/g6+tTm3jjE8eb4tHPcTZXB3KC/Lx274EvLUxDh8dyEJMifym0vdxxrxH/DDwSkNakwodenig75XIiURjhbGhznBUirXRFhdgm7QtK+VbqrxNG84VIKNC/9kae2e8M9yjlt9Cen1RAbYqr117Mh2/xxVeea2ZvRPenCpt3x0eABYJS1evXo1x48bJAQ9xdmXVqlVMZEpG0fA6Us/6rTLDsFGdsKiHLWykl+gqynDq9CV8uDkWb+24jB3p5RAnpFQaSwx7oB3eCbh+YLUmjZ0DXpoWhO+CrKSBlXKnAX692mBxXzvYq6S2LTcHP2yNxdwDOUiWtl1lZo2pI3zQt34fXSd5WfnYH5eDfdItMk/8zgpbDyyc4Y9xXubsTNTRmTNn5Lwg4kxz27ZtMWfOHBw7dqxpDrjUtpgS4oCqM9PNnN0wvUPTGmnUun9LWrWwU4J6OsQfiULHf+9H+89isC299tdQ0yNmvMybNw89evSQZ8C8/PLLcu6xv1MgRO3kiQ+HOsJVLfWeK0px5GgiXlt7Fk+ukX6b8Dyka6XfQuqTt+jUGh8G1xZo1yFX6c+L4/MvJzNwIL0M5eJnVKng5NcS/zfQrtoMEef2rbF+ggfaWYiDqxaZl9Px3+1xeGNzIhZHFyFfPriq4d3eH8vvd7z25IK2HFFnU5U+t4HbsXQc4tXUVAX7K9Qw5g4Y3Eo/bbwiJwUzvozCKzsu4bv9l/Dxb1EYvOISYuXpcSo4t3HFkGsivoIOyZHxeHRZFCYsjcToRSfR5/39CPopGef0LSY8O/nitbY32l1VCBnkj8fdRNRYh9LUZExaEI6Rq+Mwd1sCXl15At2+jMNfhfr3NHf3wqxutUQ/NPaY0t0WcltcXo7sUv1r3Dt6YnQz/VNqo83LxDs/RmGitD0Tl0XK2/TgV0cQvCodyfKUPRUcApwxoJazRdrcDMyVXx+JhxefwtDPD8H3ozNYkaaVtkr6as1c8dZgJ9SY9Hzb5eXlYeXKlRgzZowc8Bg/frx8eYuY+UFkTA2uI/Ws3xY+Pviot7Xy/EIsXR6Obt9FY/bWRMwNO4shH5/Am+fLlACIDaYPcqs1uFmN2hL3DGqLXS8H4aMu1tfPkaS2xxP9neEsNYO68nx8+N0JPCZ1Dt9adQqzI8tRXFSGixWW6HiTgVGpv1sLHaL2RmHA58fQ9/MTeOn01fnOaiNME/87M3TmOTw8vMkMuCxaemBic+V4K+1/haICqC0wsqdr3fb/Kmrd/6T7rxcQrKn2/bg2te/f4sPtrfT9G/G8MzEZiMwtQXRqKcJrfU0N0otvpqNd/+0gY4mPj8f8+fMRGhoKPz8/zJo1CwcOHJAv4TBlNq2c0Ec+COlw6fBZDFoWi3l7LuO7vRfw2vLjeGR/sf5yNrUZhnR2guGusA6pZxLk/rw4Po9dHIHe7x/BpMNFSgBEjU6dXNGxslJIx+KXHvBCoJn0uTotog9FIfjjU/jHbwl4b2ssZnx9BHdvyka2EgBpG9oC42t+sK4UW7dW9rkN3Jafw3eXmkabSo2DwQ9qGKnzW3mMVlvboneL6tPNc6Iv4rVNcXh9w3m8GJaCk3U+dmgRdfgcXgovhdytUFthVPcbDPg1jpgeYqu/zEVbilVhMVhTI7dG3oULmLMrG+HRqfhqaxx+SDL8hWwDPTHeTWyJDnnR8Xj9lH5go7Z2wtTu1qj/yVUdLkRnI0r5OJW5ps5TzoWClBQ8uz5Fud5RhZZdPDCk1lkrjSc3Nxc//vgjHnroITlp6cSJE/G///1Pzu1B1JjqU0fqV79VGBDqgfbyCEyHy8di8eJxpRNYqSQPC367iD8vZGHV7gS8cTAftVzWXJ2lM14c7oU+DtJ3KStC2Ok8yHEYAzRuzrjXQz8duPxSOlZWtl26MixbvBfWs/fBb14kFqbp764TcztMGdUZp9/pj9IFA5D9Vnesvs8VAdXaJhU6DeiIIy+H4PjL3fGlktjIrnMADv6zJUKVBl/j4onlM0NwZIoX/CsPClRnlWeeQ0JC0Lp1a7zyyit3+JlnNe7u6Y5AsTvoKrB9SxzClBMLDm08MdFFftI1XLq1wWGxL70UhLdbW6BP/zbYOacvChfchaJ3euC3Ea5oLb2nUwsvfPl0T6R/fBfK5vdF7HNt8axvZf9CqpP3BeGoeJ9ZbTHFxQbjhndE+H/6oVjaj3Ok/XjlUBe0qtOB2vD+LfLvLJ4VjOU9rZT2QIVe93SVnhOMtf1tEGTgNVeozNGrTwA2vtwbufOl77+gH5Je6YKFdznCW6kvV6kweERXHBPvNTMQ473dsXBmbxTOH4DMOZ3xkg8r0+0k8lh98skn6N27t5zP6sUXX8TevXtNMhAiYtmVe5ujVzN0q3a5eQV27IrFG5ti8eq683j1cL6+b14X2hKsP5iBBOUn09hbooVSDyxbe2KyclyryE3Fa+vSEF/tp63A4Z2x+OJ8HnYcvYh3NiajKabXoTsLE56amEZPeKqywvPP9MCnUg9INF5iOvi52EyERWVh57ks7EoqgeEZoSr0HBGCvUNEgiQtzv5xHF025F4zYLDt2h4XHvWAkxgbXE5A34/jcLiWY46Ztx+OzPRDkNQP0RakYPzbUVhbpxFITWZ4eEpPrBTT+rRl+PWnQ5ha6I+ox72kjosOZRcTELogHseqfA8zLz8cfMkP3aXPLk+7gLs/jMHuGkcGv16dcHicK1ylbanISMKQ98/jT+U5Fi1b4ejzvugoXp+SiLs+isW+mkcWCzf8/J8OmCDm3Vfk44PPwjHnwi2ovjdIeCpWY9mwYYM8q2Pr1q0oLb2pH/m6hg4dCi8vL6XUNC1ZskT56yomPL15xqsj9azfajvMndUdb4pRi/T8n5fux6QTtTRC9WXthU3vBKJLYjLeXR+LFa5tkfKIG2xUWsT8dQIBv16dq2vTtQMuTnWHo0qHzCOR6H3AHNODHRBgqUViUgaW7E9HxA1jjmqMndIbq4PNpYN/BS7laOHhYF79zLpU/y9GnMPdSy4jWt7M6m315pX7cP+BcjiGdkayNMKtuYJWWWIcun6agMiGNE01Ep5aWFhg0qRJSunOtGPHDly4cEEpGU/Lli2vJGXs2bMn1Gr1nZHw1NoNP83pgIn2KmgL0zDtvTPIGtkT63pZQiPtQyd+P4qQzdcmPvXqF4T4sU6w0JbjlNQ/aOVjW331FGm/jIrIQH6AG3qIelyFNi8Nj80/jaU5aoyc2AvrQqU6XFGIAxfM0MPX4pr9OPHEWQxcmoK4Kvti1XakJPIsvP6bjEAD+7fGuQV2vh6A/tLzqtPi1LbjeFLVFrtqvEamssDoh4OwvLf+ErlqpO8UfyIaQ5clK3VLqFInK4oQkWaBTp5Kf6ooHU+8fwrf5+mfaXQ1Ep7a2dnJ+5op2b179y1J4tq8eXN5lquol3369IFGo99RmnLCU42LN7a9EoBByuyP8sIi7I7MwJZo0Z/PQXhWhbS3G6JCt2HBODjUDubSM87/eQId1+VU68979OyEMxNc4Sj6v+lS//cD0f9Voav0ukPy66TjWngkWi5PQ50ujpaOy++81B1vNBfH5SL8d/Fx/KeWbNu6snIkFxnpmN0YmPD0lmPww8TcjtVebKXBzu//8EOfmkd6adcqyivAzogULPzrEsJSq45U6hb8MPNphWMv+KKTdFzRFiRj7Ftn8GstUV+rLu1xaZoSKEmKR89P4m+wcoNh6maeWD+7LUZYS526/BRMeC8Ka8oc8eXsIPzTRdpGqaH98uvD+Nf5q29eNfihLcrHpog8pMs1SwWNmRqODrbo08oGLqJ3pivHgY3H0H97wZWOYZ0Gdmp7vP9yN8z20g/CVvywH1MibkGDbiD48cgjj2DIkCFywOP3339HWVmZ8gjVB4MfN89YdaTe9dvMFT/O7YhJckAlD3M/OYq3LhrpsKmxQqiPDhHxJRAXh9kEd0RaLcEP7wFBiB0tDRqlTmJ2ehFKnazhfmW0p0NJehqe/S4Ki1Ku992qDLSkkq6iBDv/jMOHEYXQNPfEuyO8ECy2UwkKjT0iZsQYDn5YtvDAnGA3TBrgCpHipCIvGz8cyMGl7Ex8tS8HqQ35idY8Jw3KIpQCVWrRooU8OBXHeNEeV9PIwQ+v0E6IkgYzDiod0qRBSxtp0FIcGIjIp73RShng3PPheeyscby+EvwQBWk/27s7Bv8JL4RN+1ZYNNQJ8oQsaX8uy8rEe+sTsTnfGk+PbYOpnmo5YLd59QHcv7/iavBDeZ/wQwn4+GQxrHzcMftuN7QVAzhtKdauOIzxR/Uzu4S6Bj9g3QxT+zohtK03ngy0gEZ67MzxRPx0SYvU2BQcb9cFewwEPzy6dcDxKe7wVEv9n9Q0zP3tInYVWeHBe/0xM8ASZroybFpzBCP3lyjfqXqdFPkLoqPTsSvPAh0qkvHAylRkyM+7BZZPBzLjlQLdLE9PTzkQIuqmqJcVFVUOTE1qtRc1Qu8Nwpb7HOQgRVVi1ZWUy9lYF34Jn+3JwNlqnfWqwQ8dEg+dwZg/81Em3S8SbPu1FKu4eKGnyA0oPZ5xLBKBS9OQJX3eGGXfV0u14fiWo+ixpY4rRVUNftxAyekz8PguGU0m7QeDH7fcjfcaohsoSEjA8K/P4is5MVGVHq9YXaWZHe7v2xrrZ3XH990qp4/Wna5Ui2Llb3GpyDVnUqows5Qer9yjy7UousnOt183Dwy2kocGSD6dis3ibGp5Dn48Xqhc72iFsb1qT3yqtrbDiJ5emBYqbp6YEuyOkQG2cuBDV16Cv3ZGYcIfVwMfdSZ1/AorYw4qNWwb8bIXcWnLtGnT5OAaAx83T5y1pVuoDnWk3vVbrYGdSPYhk9oVOROzkVQU46AS+LgRW3P91GDR0XR0tYZDTja+25aALyIKkKeVOpmubvj8EV+E1LmR1SHh4FmMDkvGtvhcbNkXjXFbslEgNk9thnu6usBJ/0SDSpJS8PaOTMQqP4cuPwffbYnDW3sbGPgQ8tOVP6iqpKQkfPbZZ9cGPhqbygoTQpzQTOyQ2lL8djQT2dKfxbEpWJumH9JrnN3w2HUTn+pQEpeAR9clY3tiLjbsSMIm+bIZiQi+bYjC28dzcOh8MuYdUQZEUp/C06FmpdYh5eQ5jFiVhFWR6Vi6NRLDNmQhR96PzTEs2AWuldW3PopysXR7IpYmlkmfoBcblYR3fk/Et+dLr9xXjZj10csFHqKZryjCNz+fwYcnc7DvXApmL41FmOiUSHVrcIhbLQncdcg5G4N7vj2DJ348ib63MvAhFIn/NWqo5ORkfPXVV/Ly/NUCH02OFge3RWDIqov4I6Mc1brz0nHQ09sFTz3QCUdmtsWEWsfhKrTs2R6HX+mB46+E4ODzQVj1UHOEyoEP6RMKczDv93ToFy5XScdWzZWBaHFZheF6RWRk7ImTUWQnJePZrw/C5/0TmPxrAr6PyMG5An3yQUFlaYtpDwfiiXoGLlUW6qvTqit0uN6wWyser/xAaaBQNQN9nalt8WiIA+SxkbYEYeFZ0C/IqsPh8DREKCtKeHSoPfGprqwEZy7k4XR6KYorjx5iuuvJ8xj4zgEM3HD12sd6UWlgdaUvqUNpIx5jReIvMWPBGOvg/12JqH379u2VEt0SN6ojN1O/dVK7It8vaGBTdYWYRlRepc3QleTgjYUn8eTGODy/+ASeOlkqdVtVsPH2wlM11yCsjbYce6Kyq50NSziThVPy56hg5W6LdvWNVhuLucHM2CRxcnLCo48+qpRuDzNPT0z2V67Tz87Az9FKRavIw4/HCvTHYbUFRlw38akOSUl5SKqsWrpyZFWesdAV4mDC1dMDqQVXZ25YmtXYv3UV2BuRgeTK95EknEzHEaUuW3nYoUNj9XQ19ujhpf9ddNL2WLq7YUqIh3yb3N4CZUpOFAuvZgg2GBfSIfx0xtXf5FbTNOIZFBPXrFkzTJkypemf4JD22/CD5zD43QNo+1UkZm67jPVxhciUs5UKKthJ9f+bh5vXaQXGK6TjaE5yGuZ8fxoLLle+l3SM1l4dJ1hbVCYXridtKXbticWc3wzf3jycd+UkKpHA4AcZhYWlOdyk42h2ejZ++isOj39/DG3e3IeuSxLwp5L0QyQTnNC5fp1as2YWcFdaw4r8EiWZoWHl2cW4rDyucbSGfy0dd0svF0wKtIGTgVbW0tdTyV4vUZlj/COhuPR2b/mW+A9vtFVeo5K2ZVotiU8rslPx5Gfh6PTufrT7/iLCi6XtV6nh18kXnwx0gsdNte4SqTPpba+8WGrsL8mnthpHx44d5Us2xDXtn3/+Ofr27as8QnXRrVs3efYMpy3eYjeoIzdVv7UluJCrvI/KEv7i0hhDNLYY0d0R7ayVspFlF5aL+K+sPDULW/XX1Un9x1JsisyFvIq32hxdfOraxpYju8b0uIr8MlTmiFZJHVF7/Z+Nr1nTzvdjbI6OjvLMu02bNslnmb/55hvlkdtBhdCe7ghSLrlS27th2Rv6OnTp7V7Y3N9G6VjqE59OqiXxqVBQXDWHgO7qmWZdhbRvKn9LquaWvCb+Lj03S15m5iptcRnSlTMlKiszONRSZY1ObQYnpf6rzJrhnxPbY9kjym1ya4wTCb/EYxbm8KyWTFIhbUtKnn7Z7EZh7678QTdD5EiZPHky1q9fj5SUFCxbtswEZneqYG9nDjvp+HD+fCo+3XgWoz4/BI9/H8G47VlIlXdOqW4HumOUwamBOqScTcSza6Lx9Oqz+MfKM5iyJAJDPjmAFvNOY17M1UCmeG5SlrKogfSeLVys9JfDXUOFzh3cMdjdzPDscV05jh69gA+2Jxq8fXy8ACXKU4kEBj+oAVQIGtIVyR8OQNGHvbFnWLPqDZe2HCePx+ONI0XKlFXAy6lmerzrUaGrfzO4yHupDvkX83DqOrMdSi/l4qgINEjU1g4Y2trQ7q3B0IFtsOyZHlJHLRg/9q7aAxHZ693kTPMylQaOzSzh5VB5M4dN5fpzKjV69fBA1+vWIB0STsdgUlgm0kVrLw1Mgu9qhyV9rHG9ycC1sfB2QKhy3Y+2JB+Hq57qaiTe3t547rnnsGfPHjkQ8umnn8rJvoztjz/+kFc5MJXb0aNHcd999ylbR7fK9evITdbvinzsv6AM0qTBTf92jgZXnbJv3wILHwlC5NzeODbFy+hnmwsyi6ud3a6qtEx7ZVachaauH2wGlxrXEaqtNFe2TVdagVzl70ZXY4QrBv+G6tWddHvwwQeVb2scDg4OmDp1qnypoRhY/fDDDxg2bJic/PW2snDCtK5Xj2Eqc2kgf6UOSTdbzZXEoyrzZpjSw67W412F9LsZpkOdrx6Q6rHzletdFeYa2CsfKvbj/MY6VGorUKRURF1pHhaHxeCVDQZuv13GfkOjMZ0WhbUt93QrSO1cVf7+/gb37aZ8M/YsKRHwEMmX161bh7S0NKxYsQIPPPAArKya+Gw1tS1mP9sHufMHIOftbviPb/U2uLywAGs2x2GF3JkVTbQFWhqMKuqQdzkD3+29hIX7LuO/B5Kx4ngGdlwoMVAPdTgZn48cJaDi2NoZAww1b2JVtHHtsW12byS91B5P3PQZRCI9I3fP6O9Fh9jUEqgt1FBLB9HW3X0wvmYiDLUVQrxFsjC9rPzrXbhSnY1nc7zZ00bfcapyXXGtijOxIqJEWRrXEpOH++GuGmdXHP198e9uIiu8ClZ2FijJrdIDsXHB1M6W8nfVVRRjz1Gp0T5S85aBSDnAooK5lwemGwywVKVD9L5zmBMlpqVL1Ba4d3gbPFPfEy7mtnhyqCfayj+kDimRSq6C20gk33vhhRfkZd8ql4Pr1auX8ihRI7tRHbnp+l2BzUfSryyh6xPcCm+2rr6kN6wd8PpQdzRXq6QBnwXcyktxQd9HNJqSpBz9LDKJmZsD+l+57E6FVm7W+sv8pM7+pew6nuNSm6FPO8dqsztcWjmgk7xhOpSkFeDsDQagWunzrpDaVHZJG0ZMnReDtbCwMDngIVaMuv/++29/wKMK546eeFAe9OhQnpWNVdfUoWT8GFWAXLH/S/2CTsFeGHAz0f66UmnQq70Tqs6ps/d3UGam6FCWXnBliflbrqIQkcqMLJVGh7hTF/DxH8rtL6ltyS/GqdgMrNiXiiMG5+HrrszuojuHWFmpchn/1NRUeRanCHY2+YBHVdpiROdI22omteMaa0wa5I6WNRp0Myd7dJUT/QjlSJMTRDVMTlQK1ikzKzWOHnj3Xgc4V/tcM/S/xw/jpTZHJdV1NzstkrNZSahhGPygBsk7cxmrMvTX7GkcXPHtv4Lw1RAvTAxyw6TeLfHN00H4MNBM7hTryvIRdsrQiF0FV//m+PDB1pgv3RY8FIjFj3VD5IsBGCZPYdchO+YCPjh1oxSh0iBlWwI2yZfZqGDr44ONL3bBV/c0x/QeXpj1YEfse9IHwXLyQh3y4pPwSdTV3n3zIE8Mk9fc06E08SIeX34GU1bUvEVizkllmp7aCmNCa098eoWuGIt/icNGJeyttnHEv0d5wb9aA3+V2s4RT43U/xbzHwzA1xM7Yu/sbvi8vT6zvbYwG/O3ZVw/ENTIfKTfWqx/v3//fsTHx2P+/PlynhCiW+Fm6khD6ndeVALejtQHMFWW9njlye7YPLYlnunpgccHtsavz3fGyz7K8pTFufi/nZkw+uqURZlYfkr/3VRWTpg7tTWm+NuhV1c/fNlfZNmXPrskBxvP1jXArELL0EAsHeiI1jbmaNuuJZaMdJFXyxKz9naezFSS0l1HuQ4lSgBEbW+Lfr72uKu1rcFLCskwe3t7eTUtsXy4GFgtXbpUXs3F0rI+syQbicoCY3o4y8u1i0DboT1nMfmaOnQGjyyJxa/K5a4aZ1dMv27i04ZSwbNbIFbe54JOzczg49ccCx/wgLwIhMgHIu3H110AyZh0hfjfiTx9snWNPf41xhd3i8Giygy9BgdixYSO2PRCD0Q/7l2/fAnU6GxsbDB+/Hj88ssv8gyPn376CQ899BCsrW/RdY23XQW2HEhFrJIrx6tLG/z1dCBm93bH2CB3PDkkEL//0x+DlGThxUnpCDNGXuqSDLy/JUN/OY1Kg+DBXXDwH4F4va8npvZqgfnSWOC3u+31ix2IlRJ3J2Fzzfi+yhx9+/gr/QFDN3+81ol5pOgqcXggunml2Zj7y0WclC84V8HaxQnPjGiLn6Z3xI/j/fFUoJWSXLAMh3acxxcG522r4OLniRcH+WCWdJt5lzemd3GAr6U4k6hD/uXLePKnJETW4exNRcZlTF8Sj515IiCjgq2bM54Z3gaLJ7fF/EFuaK803GVZ6Zi5MklJ7idRWWNisCP0sRYt9h1Lw3mDHaYKbD2cjkT5dSp4dPTEmFoSn1ZVkXkZz4UpDbzY3nZ++DjY0mAFVNs2w5SB+t9i1qAWeDrUDX2czSBm5OtKCrB49Rl83mi9ufoTS53OmjULBw4cQFxcHD7++GP06NFDeZSo4epdRxpav0UA86fTmHuuVIz3obK0wb39/PHVpPb4bpQPRnnqZ4KIGSXr1p3FgltySVo5ftsUg5/T9W2bSysfLHsuBPun+WKg2DCt1DH8Iw5LMpWn34i2BLHZFhg1qivOv98XZ57yx/2OIh+KDtlxiXjziDJb7XrKi6T30G+r2tYF858LxvaJXujCnsV1VeYKEFPnRcBj+fLlGDly5J0Z8KhC4+KORwKUIF9ZDlYfK9IHCmsqycKyk8X6x9QWGBl6vcSnDSTV5/wyMwy5rzMi5vZD4gttMMldvx/nJlzAnIPK92gkkXti8cVFsWqFCu5tWmH7f/oh+31xWbCTvHyorjgPCzZeRvytaCKoQUTAY9y4cfKS/iLgsXLlSowePdqEAx7VFZxPwL92F+hX/FJp4NfGG++P74A10zvg2xHeGOSkr/vawjx8tO7i1f5zA8UePINxW7OQKgIv0ucGtPPGuw+3w5IJAZjVxRbN5IOrFokRMXh8p4GVEtXm6BFS2R8wdGuB6QF3dttKjYtdFGqwtDMxGPx1NL4+W4jsmnM2pQYrMzkDn608gfu25tbhbKhOeokWRYUliI5PxzcbTiHk02isueEpyKsyYhJw/6enMPtQDhKKr2aSFu9dUVKMvYdicf/nkVhUZT1GMy8PTG6lZGkvycaqE7V3mIpjk7FaH8WQz8BODa7bgTH+0Hm8dqry8hdLPDjCH6Pt5IdqJa5ZLSstw6XUXGzYE4MHFxzFE8eVS3uaAD8/P7z00ks4dOgQYmNjMW/ePISEhCiPEjVcXeqIMeq3WKLv7W+P4oHfkrE3s1wOglTSacuRKL3u1W+PYcIBZcncW0AkU57xTSTmRRUi72p2SJTl52HFupMYuS0PBcq9N6TNx4LFkfgw6uoS5WI7ok7E4oHvL+B4XRqZilx8sy0N0XLwW5D+tdA0XoLJJqRy6vyvv/4qBzxEroCmNXVehU4hHugtr3akQ35MKtbWelzWYs+RNOWyKRWaBXpisqv8gPHpyvHr/07jrdNFKKyyH0efjMOoRQk4VPcrbY2jJAdzvo3A7KN5SJUaCbFEqIO1BhrpN0lLSsEr30Vg7k0t90a3gghsjB07FqtXr5br5apVq+SyCIT87ejKsGX9cQxecxHbU8uqHeMEXUUZoiIvYMZXJ/F2nBF7oVId/mtrBHotisWy2GLkVh1HSMf3/KwcLA2LQL+ll3GGVYeMQCV1HGvs3tSUieRoYspsNcPfBgIGKIVby8zaCh09rOBurYa6rBwXxfW22RW3b7BuZo42HtZobqNGeXEJzl4qQtpt+zJNhE46unwxWCnozZgxA4sWLVJKDScCIeLsiuhwiGSgNYmEp2LNfGpaRO4XMfOnmtCpQK9pSsFUqOHuZoMABzNYVlTgYmo+oo1w/XN92DrYooubOcxKinH6YjEyG9ApdHS2Q2dnNXLS83EqW3vjGR81mEkDiO7NLWFZVopzlwuR3NABZ9gbUiOxVynoE55mZdUjAn4bjBo1Sl71oSoR8BAzOh5++GE5WamxziAXFhbK711N0Chg4PNKwdSpMXJiL6wLtYBaW4qliw9g2iktnFzs0dlJJe3HBYiQ+h23e5wk+kOdPa3gYqZDVqb0nTLKUao8dkdYI+0vl04qBX3C05iYGKVkGkTSYLEKS1Ui4Chy6YhZHsOHD5dnYhmLubk5ysurhL/bDQGGvq4UmhKVdFywQQdnCziYA8WFpTifXIALjbBsipWdNdq7WsJJqje5OYWISCv7e63Wsvsb4OhqpaCXkZHB1QKNiDM/yKjKi4pxIj4b26IysfV8rtSRvo2BD6G8DNEXc/HnuWzsucDAx51CdLJeffVVhIeH49y5c3j//ffl5WCJmgYtUtPyse98NnbG5TV64EMoyCnAfunzd19oWOBDyM7Mx26pvT55E4EPobyoCIdipO+SaITARxNXOXV+7dq18pnkn3/++W81df52ysrIwy5pPz5xBwQ+BNEfOhaXje3nchB+pwU+/mbEJWUiZ4eoj+KSFpHLQ+T0MGbgw7TopONCgXSMy8LmqCzsTGicwIdQnF+EY9I44o/zOTjydwt8UKNg8IOIbquAgADMnj1bngESHR2N9957D66ut2qONBGR8Q0ZMkSezVY5dX7MmDF/z6nzRHeQfv36yauziICHWK1lwoQJDHgQ/c0x+EFEd4zAwEDMmTMHnTt3Vu4hIrrzPfvss3KugGsuRyGi2+aJJ57ApEmT5FWViIgEBj+IiIiIqInQYseGcAS8cwCt3w3Hy2fvhItciIioKWDwg4iIiIiajMKCEsRlFCM2swRpf/M8M0REVHcMfhARERERERGRSWPwg4iIiIiIiIhMGoMfRERERERERGTSGPwgIiIiIiIiIpPG4AcRERERERERmTQGP4iIiIiIiIjIpDH4QUREREREREQmjcEPIiIiIiIiIjJpDH4QERERERERkUlj8IOIiIiIiIiITBqDH0RERERERERk0hj8ICIiIiIiIiKTxuAHEREREREREZk0Bj+IiIiIiIiIyKQx+EFEREREREREJo3BDyIiIiIiIiIyaQx+EBEREREREZFJY/CDiIiIiIiIiEwagx9EREREREREZNIY/CAiIiIiIiIik8bgBxERERERERGZNAY/iIiIiIiIiMikMfhBRERERERERCaNwQ8iIiIiIiIiMmkMfhARERERERGRSWPwg4iIiIiIiIhMGoMfRERERERERGTSGPwgIiIiIiIiIpPG4AcRERERERERmTQGP4iIiIiIiIjIpDH4QUREREREREQmjcEPIiIiIiIiIjJpDH4QERERERERkUlj8IOIiIiIiIiITBqDH0RERERERERk0hj8ICIiIiIiIiKTxuAHEREREREREZk0Bj+IiIiIiIiIyKQx+EFEREREREREJo3BDyIiIiIiIiIyaQx+EBEREREREZFJY/CDiIiIiIiIiEwagx9EREREREREZNIY/CAiIiIiIiIik6bSSZS/yQRs3LgRI0aMUEqKwS8BAf2VAtENiCbhv6OUgt6MGTOwaNEipURkWGJiInx9fZWSImg00GuqUiCqg7A3gUsnlQLg6OiIrKwspUSFhYWwtbVVSoq2g4GBzykFojpY+zyQEa8UAH9/f8TExCgluhnm5uYoLy9XShK/UGDoHKVAVAe7FwKRm5WCXkZGBpydnZUSNRSDHybGYPCDqIEY/KC6MBj8IGogBj+qMxj8IGogBj8a7prgB5ERMPhhXLzshYiIiIiIiIhMGoMfJsbLy0v5i8h47OzslL+IaifOTFhYWCglIuNg+1OdlZUVnJyclBKRcbCeNRz74GRsarUaNjY2SomMgcEPE9O9e3eEhIQoJaKGEx2i557jteR0Y2JfmTRpklIiMo7Zs2crf5EgOsPiUkQiY5ozh7kpGuqpp55S/iIyjhdeeEEOeJPxMOeHCSopKcHChQuRlJQE/vdSQ7i5uWHs2LFo3bq1cg/R9Yk2Z/ny5YiIiGD7Qw0iZhHdc889GDRokHIPVbV27VocOnQIWq1WuYeo/qytrTFs2DD06dNHuYcaIiwsDLt372a9pAbRaDTo16+fXDfNzMyUe8kYGPwgIiIiIiIiIpPGy16IiIiIiIiIyKQx+EFEREREREREJo3BDyIiIiIiIiIyaQx+EBEREREREZFJY/CDiIiIiIiIiEwagx9EREREREREZNIY/CAiIiIiIiIik8bgBxERERERERGZNAY/iIiIiIiIiMikMfhBRERERERERCaNwQ8iIiIiIiIiMmkMfhARERERERGRSWPwg4iIiIiIiIhMGoMfRERERERERGTSGPwgIiIiIiIiIpPG4AcRERERERERmTQGP4iIiIiIiIjIpDH4QUREREREREQmjcEPIiIiIiIiIjJhwP8DZ9L4mAVrtNoAAAAASUVORK5CYII=;" vertex="1" parent="1">
          <mxGeometry x="90" y="80" width="727" height="452.12" as="geometry" />
        </mxCell>
        <mxCell id="CzSD6Df-Re3cXR8nSm7G-3" value="" style="rounded=0;whiteSpace=wrap;html=1;fillColor=#0069D4;" vertex="1" parent="1">
          <mxGeometry x="360" y="110" width="250" height="110" as="geometry" />
        </mxCell>
        <mxCell id="CzSD6Df-Re3cXR8nSm7G-5" value="&lt;b&gt;&lt;font color=&quot;#ffffff&quot; style=&quot;font-size: 18px;&quot;&gt;ESP32-BLE&lt;/font&gt;&lt;/b&gt;" style="text;html=1;strokeColor=none;fillColor=none;align=center;verticalAlign=middle;whiteSpace=wrap;rounded=0;" vertex="1" parent="1">
          <mxGeometry x="411.75" y="135" width="146.5" height="60" as="geometry" />
        </mxCell>
      </root>
    </mxGraphModel>
  </diagram>
</mxfile>
